<?xml version="1.0" encoding="UTF-8" standalone="no"?>
<svg
   focusable="false"
   role="img"
   class="govuk-header__logotype"
   viewBox="0 0 281.33893 28.822266"
   height="28.822266"
   width="281.33893"
   aria-label="GOV.UK"
   version="1.1"
   id="svg1"
   sodipodi:docname="gov.svg"
   inkscape:version="1.1.2 (0a00cf5339, 2022-02-04)"
   xmlns:inkscape="http://www.inkscape.org/namespaces/inkscape"
   xmlns:sodipodi="http://sodipodi.sourceforge.net/DTD/sodipodi-0.dtd"
   xmlns="http://www.w3.org/2000/svg"
   xmlns:svg="http://www.w3.org/2000/svg"
   xmlns:rdf="http://www.w3.org/1999/02/22-rdf-syntax-ns#"
   xmlns:cc="http://creativecommons.org/ns#"
   xmlns:dc="http://purl.org/dc/elements/1.1/">
  <defs
     id="defs1">
    <rect
       x="39.231167"
       y="3.4413302"
       width="315.56998"
       height="106.33711"
       id="rect2" />
    <inkscape:path-effect
       effect="powerstroke"
       message=""
       id="path-effect9"
       is_visible="true"
       lpeversion="1.3"
       scale_width="2.4822695"
       interpolator_type="CentripetalCatmullRom"
       interpolator_beta="1"
       start_linecap_type="zerowidth"
       end_linecap_type="zerowidth"
       offset_points="0.20622914,0.20080038 | 3.5212858,0.99883482 | 6.9664077,0.10085876"
       linejoin_type="round"
       miter_limit="4"
       not_jump="false"
       sort_points="true" />
    <rect
       x="38.145096"
       y="39.961529"
       width="110.43913"
       height="29.062929"
       id="rect1" />
    <clipPath
       clipPathUnits="userSpaceOnUse"
       id="clipPath80841">
      <ellipse
         style="fill:none;stroke:#212532;stroke-width:4.41425;stroke-linecap:round;stroke-linejoin:round;stroke-opacity:1;paint-order:markers stroke fill"
         id="ellipse80843"
         cx="67.875381"
         cy="60.158928"
         rx="55.519527"
         ry="56.45929"
         transform="rotate(3.3998407)" />
    </clipPath>
    <clipPath
       clipPathUnits="userSpaceOnUse"
       id="clipPath41">
      <ellipse
         style="fill:none;stroke:#212532;stroke-width:1.0843;stroke-linecap:round;stroke-linejoin:round;stroke-opacity:1;paint-order:markers stroke fill"
         id="ellipse42"
         cx="16.044268"
         cy="15.126184"
         rx="13.63755"
         ry="13.868389" />
    </clipPath>
    <clipPath
       clipPathUnits="userSpaceOnUse"
       id="clipPath17416">
      <text
         xml:space="preserve"
         style="font-style:normal;font-variant:normal;font-weight:bold;font-stretch:normal;font-size:35.9871px;line-height:1.25;font-family:Arial;-inkscape-font-specification:'Arial, Bold';font-variant-ligatures:normal;font-variant-caps:normal;font-variant-numeric:normal;font-variant-east-asian:normal;fill:#000000;fill-opacity:1;stroke:none;stroke-width:0.899678"
         x="2.4834783"
         y="29.718012"
         id="text17420"
         transform="scale(1.1533544,0.86703619)"><tspan
           sodipodi:role="line"
           id="tspan17418"
           x="2.4834783"
           y="29.718012"
           style="font-style:normal;font-variant:normal;font-weight:bold;font-stretch:normal;font-size:35.9871px;font-family:Arial;-inkscape-font-specification:'Arial, Bold';font-variant-ligatures:normal;font-variant-caps:normal;font-variant-numeric:normal;font-variant-east-asian:normal;stroke-width:0.899678">λ</tspan></text>
    </clipPath>
  </defs>
  <sodipodi:namedview
     id="namedview1"
     pagecolor="#505050"
     bordercolor="#eeeeee"
     borderopacity="1"
     inkscape:showpageshadow="0"
     inkscape:pageopacity="0"
     inkscape:pagecheckerboard="0"
     inkscape:deskcolor="#505050"
     inkscape:zoom="4.7559391"
     inkscape:cx="54.878751"
     inkscape:cy="53.406907"
     inkscape:window-width="1904"
     inkscape:window-height="1115"
     inkscape:window-x="8"
     inkscape:window-y="40"
     inkscape:window-maximized="0"
     inkscape:current-layer="svg1"
     inkscape:pageshadow="0"
     showgrid="false" />
  <title
     id="title1">GOV.UK</title>
  <g
     inkscape:groupmode="layer"
     id="layer1"
     inkscape:label="gov-uk-layer"
     sodipodi:insensitive="true"
     style="display:none"
     transform="translate(-1.8652344,-0.71484375)">
    <path
       d="m 22.6,10.4 c -1,0.4 -2,-0.1 -2.4,-1 -0.4,-0.9 0.1,-2 1,-2.4 0.9,-0.4 2,0.1 2.4,1 0.4,0.9 -0.1,2 -1,2.4 m -5.9,6.7 c -0.9,0.4 -2,-0.1 -2.4,-1 -0.4,-0.9 0.1,-2 1,-2.4 0.9,-0.4 2,0.1 2.4,1 0.4,0.9 -0.1,2 -1,2.4 m 10.8,-3.7 c -1,0.4 -2,-0.1 -2.4,-1 -0.4,-0.9 0.1,-2 1,-2.4 0.9,-0.4 2,0.1 2.4,1 0.4,0.9 0,2 -1,2.4 m 3.3,4.8 c -1,0.4 -2,-0.1 -2.4,-1 -0.4,-0.9 0.1,-2 1,-2.4 0.9,-0.4 2,0.1 2.4,1 0.4,0.9 -0.1,2 -1,2.4 M 17,4.7 19.3,5.9 V 2.5 L 17,3.2 16.8,3 17.7,0 H 14.3 L 15.2,3 15,3.2 C 14.9,3.3 12.7,2.5 12.7,2.5 V 5.9 L 15,4.7 c 0.1,0.1 0.1,0.2 0.2,0.2 l -1.3,4 c -0.1,0.2 -0.1,0.4 -0.1,0.6 0,1.1 0.8,2 1.9,2.2 h 0.7 c 1,-0.2 1.9,-1.1 1.9,-2.1 0,-0.2 0,-0.4 -0.1,-0.6 L 16.9,5 C 16.8,4.8 16.9,4.8 17,4.7 m -7.6,5.7 c 0.9,0.4 2,-0.1 2.4,-1 0.4,-0.9 -0.1,-2 -1,-2.4 -0.9,-0.4 -2,0.1 -2.4,1 -0.4,0.9 0,2 1,2.4 m -5,3 c 0.9,0.4 2,-0.1 2.4,-1 0.4,-0.9 -0.1,-2 -1,-2.4 -0.9,-0.4 -2,0.1 -2.4,1 -0.4,0.9 0.1,2 1,2.4 m -3.2,4.8 c 0.9,0.4 2,-0.1 2.4,-1 0.4,-0.9 -0.1,-2 -1,-2.4 -0.9,-0.4 -2,0.1 -2.4,1 -0.4,0.9 0,2 1,2.4 m 14.8,11 c 4.4,0 8.6,0.3 12.3,0.8 1.1,-4.5 2.4,-7 3.7,-8.8 l -2.5,-0.9 c 0.2,1.3 0.3,1.9 0,2.7 -0.4,-0.4 -0.8,-1.1 -1.1,-2.3 l -1.2,4 c 0.7,-0.5 1.3,-0.8 2,-0.9 -1.1,2.5 -2.6,3.1 -3.5,3 -1.1,-0.2 -1.7,-1.2 -1.5,-2.1 0.3,-1.2 1.5,-1.5 2.1,-0.1 1.1,-2.3 -0.8,-3 -2,-2.3 1.9,-1.9 2.1,-3.5 0.6,-5.6 -2.1,1.6 -2.1,3.2 -1.2,5.5 -1.2,-1.4 -3.2,-0.6 -2.5,1.6 0.9,-1.4 2.1,-0.5 1.9,0.8 -0.2,1.1 -1.7,2.1 -3.5,1.9 -2.7,-0.2 -2.9,-2.1 -2.9,-3.6 0.7,-0.1 1.9,0.5 2.9,1.9 L 20,20.5 c -1.1,1.1 -2.1,1.4 -3.2,1.4 0.4,-1.2 2.1,-3 2.1,-3 h -5.4 c 0,0 1.7,1.9 2.1,3 -1.1,0 -2.1,-0.2 -3.2,-1.4 l 0.4,4.3 c 1,-1.4 2.2,-2 2.9,-1.9 -0.1,1.5 -0.2,3.4 -2.9,3.6 -1.9,0.2 -3.4,-0.8 -3.5,-1.9 -0.2,-1.3 1,-2.2 1.9,-0.8 0.7,-2.3 -1.2,-3 -2.5,-1.6 0.9,-2.2 0.9,-3.9 -1.2,-5.5 -1.5,2 -1.3,3.7 0.6,5.6 -1.2,-0.7 -3.1,0 -2,2.3 0.6,-1.4 1.8,-1.1 2.1,0.1 0.2,0.9 -0.3,1.9 -1.5,2.1 -0.9,0.2 -2.4,-0.5 -3.5,-3 0.6,0 1.2,0.3 2,0.9 L 4,20.7 C 3.7,21.8 3.3,22.6 2.9,23 2.6,22.2 2.7,21.6 2.9,20.3 L 0,21.2 C 1.3,23 2.6,25.5 3.7,30 7.4,29.5 11.6,29.2 16,29.2 M 44.3,17.6 c 0,0.9 0.1,1.7 0.3,2.5 0.2,0.8 0.6,1.5 1,2.2 0.5,0.6 1,1.1 1.7,1.5 0.7,0.4 1.5,0.6 2.5,0.6 0.9,0 1.7,-0.1 2.3,-0.4 0.6,-0.3 1.1,-0.7 1.5,-1.1 0.4,-0.4 0.6,-0.9 0.8,-1.5 0.1,-0.5 0.2,-1 0.2,-1.5 v -0.2 h -5.3 v -3.2 h 9.4 V 28 H 55 v -2.5 c -0.3,0.4 -0.6,0.8 -1,1.1 -0.4,0.3 -0.8,0.6 -1.3,0.9 -0.5,0.2 -1,0.4 -1.6,0.6 -0.6,0.2 -1.2,0.2 -1.8,0.2 -1.5,0 -2.9,-0.3 -4,-0.8 -1.2,-0.6 -2.2,-1.3 -3,-2.3 -0.8,-1 -1.4,-2.1 -1.8,-3.4 C 40.2,20.4 40,19 40,17.5 c 0,-1.5 0.2,-2.9 0.7,-4.2 0.5,-1.3 1.1,-2.4 2,-3.4 0.9,-1 1.9,-1.7 3.1,-2.3 1.2,-0.6 2.6,-0.8 4.1,-0.8 1,0 1.9,0.1 2.8,0.3 0.9,0.2 1.7,0.6 2.4,1 0.7,0.4 1.4,0.9 1.9,1.5 0.6,0.6 1,1.3 1.4,2 l -3.7,2.1 c -0.2,-0.4 -0.5,-0.9 -0.8,-1.2 -0.3,-0.4 -0.6,-0.7 -1,-1 -0.4,-0.3 -0.8,-0.5 -1.3,-0.7 -0.5,-0.2 -1.1,-0.2 -1.7,-0.2 -1,0 -1.8,0.2 -2.5,0.6 -0.7,0.4 -1.3,0.9 -1.7,1.5 -0.5,0.6 -0.8,1.4 -1,2.2 -0.3,0.8 -0.4,1.9 -0.4,2.7 z M 71.5,6.8 c 1.5,0 2.9,0.3 4.2,0.8 1.2,0.6 2.3,1.3 3.1,2.3 0.9,1 1.5,2.1 2,3.4 0.5,1.3 0.7,2.7 0.7,4.2 0,1.5 -0.2,2.9 -0.7,4.2 -0.4,1.3 -1.1,2.4 -2,3.4 -0.9,1 -1.9,1.7 -3.1,2.3 -1.2,0.6 -2.6,0.8 -4.2,0.8 -1.6,0 -2.9,-0.3 -4.2,-0.8 -1.2,-0.6 -2.3,-1.3 -3.1,-2.3 -0.9,-1 -1.5,-2.1 -2,-3.4 -0.4,-1.3 -0.7,-2.7 -0.7,-4.2 0,-1.5 0.2,-2.9 0.7,-4.2 0.4,-1.3 1.1,-2.4 2,-3.4 0.9,-1 1.9,-1.7 3.1,-2.3 1.2,-0.5 2.6,-0.8 4.2,-0.8 z m 0,17.6 c 0.9,0 1.7,-0.2 2.4,-0.5 0.7,-0.3 1.3,-0.8 1.7,-1.4 0.5,-0.6 0.8,-1.3 1.1,-2.2 0.2,-0.8 0.4,-1.7 0.4,-2.7 v -0.1 c 0,-1 -0.1,-1.9 -0.4,-2.7 -0.2,-0.8 -0.6,-1.6 -1.1,-2.2 -0.5,-0.6 -1.1,-1.1 -1.7,-1.4 -0.7,-0.3 -1.5,-0.5 -2.4,-0.5 -0.9,0 -1.7,0.2 -2.4,0.5 -0.7,0.3 -1.3,0.8 -1.7,1.4 -0.5,0.6 -0.8,1.3 -1.1,2.2 -0.2,0.8 -0.4,1.7 -0.4,2.7 v 0.1 c 0,1 0.1,1.9 0.4,2.7 0.2,0.8 0.6,1.6 1.1,2.2 0.5,0.6 1.1,1.1 1.7,1.4 0.6,0.3 1.4,0.5 2.4,0.5 z M 88.9,28 83,7 h 4.7 l 4,15.7 h 0.1 L 95.8,7 h 4.7 l -5.9,21 z m 28.8,-3.6 c 0.6,0 1.2,-0.1 1.7,-0.3 0.5,-0.2 1,-0.4 1.4,-0.8 0.4,-0.4 0.7,-0.8 0.9,-1.4 0.2,-0.6 0.3,-1.2 0.3,-2 v -13 h 4.1 v 13.6 c 0,1.2 -0.2,2.2 -0.6,3.1 -0.4,0.9 -1,1.7 -1.8,2.4 -0.7,0.7 -1.6,1.2 -2.7,1.5 -1,0.4 -2.2,0.5 -3.4,0.5 -1.2,0 -2.4,-0.2 -3.4,-0.5 -1,-0.4 -1.9,-0.9 -2.7,-1.5 -0.8,-0.7 -1.3,-1.5 -1.8,-2.4 -0.4,-0.9 -0.6,-2 -0.6,-3.1 V 6.9 h 4.2 v 13 c 0,0.8 0.1,1.4 0.3,2 0.2,0.6 0.5,1 0.9,1.4 0.4,0.4 0.8,0.6 1.4,0.8 0.6,0.2 1.1,0.3 1.8,0.3 z M 130.7,7 h 4.2 v 9.1 L 142.3,7 h 5.2 l -7.2,8.4 7.7,12.6 h -4.9 l -5.5,-9.4 -2.7,3 V 28 h -4.2 z m -27.6,16.1 c -1.5,0 -2.7,1.2 -2.7,2.7 0,1.5 1.2,2.7 2.7,2.7 1.5,0 2.7,-1.2 2.7,-2.7 0,-1.5 -1.2,-2.7 -2.7,-2.7 z"
       id="path1"
       style="display:inline;opacity:0.5" />
  </g>
  <path
     id="text2"
     style="font-weight:bold;font-size:32px;font-family:Arial;-inkscape-font-specification:'Arial Bold';white-space:pre;fill:#ffffff;stroke-width:1.023"
     d="M 152.79308 47.40181 C 149.58475 47.40181 146.99713 48.458602 145.02838 50.573185 C 143.05963 52.677352 142.07461 55.634935 142.07461 59.447435 C 142.07461 63.051602 143.05281 65.895791 145.01114 67.979124 C 146.96948 70.052041 149.46918 71.08802 152.51084 71.08802 C 154.96918 71.08802 156.997 70.484447 158.59075 69.276114 C 160.19492 68.057364 161.33962 66.198198 162.02712 63.698198 L 157.54368 62.27625 C 157.15826 63.953334 156.52239 65.181293 155.63698 65.962543 C 154.75156 66.743793 153.69477 67.134573 152.4656 67.134573 C 150.79893 67.134573 149.44394 66.521671 148.40228 65.292504 C 147.36061 64.063337 146.84029 62.000708 146.84029 59.104875 C 146.84029 56.375708 147.36527 54.400995 148.41736 53.182245 C 149.47986 51.963495 150.86033 51.353102 152.55824 51.353102 C 153.78741 51.353102 154.83021 51.697592 155.68437 52.385092 C 156.54896 53.072592 157.11557 54.011326 157.3864 55.198826 L 161.96465 54.104357 C 161.44381 52.271023 160.66225 50.865077 159.62059 49.88591 C 157.87059 48.22966 155.59516 47.40181 152.79308 47.40181 z M 176.13673 47.40181 C 174.27214 47.40181 172.62577 47.702519 171.19869 48.306686 C 170.12577 48.754603 169.13608 49.443582 168.22984 50.370665 C 167.334 51.297749 166.62636 52.343057 166.10553 53.509724 C 165.40761 55.093057 165.05846 57.051622 165.05846 59.384955 C 165.05846 63.030789 166.06429 65.895791 168.07471 67.979124 C 170.08513 70.052041 172.79296 71.08802 176.19921 71.08802 C 179.56379 71.08802 182.2508 70.047377 184.26122 67.964043 C 186.27164 65.870293 187.27748 62.972994 187.27748 59.275078 C 187.27748 55.545911 186.26231 52.634618 184.23106 50.540868 C 182.21023 48.447118 179.51173 47.40181 176.13673 47.40181 z M 243.3561 47.40181 C 241.59568 47.40181 240.09034 47.665558 238.84034 48.196808 C 237.60076 48.728058 236.64803 49.504954 235.98136 50.525787 C 235.32511 51.536204 234.99677 52.625292 234.99677 53.791959 C 234.99677 55.604459 235.69974 57.139947 237.10599 58.400364 C 238.10599 59.296197 239.84494 60.05228 242.32411 60.666863 C 244.25119 61.14603 245.48597 61.479036 246.02764 61.666536 C 246.81931 61.947786 247.37193 62.280792 247.68443 62.666209 C 248.00735 63.041209 248.16703 63.499092 248.16703 64.040759 C 248.16703 64.884509 247.78773 65.624443 247.02731 66.25986 C 246.27731 66.88486 245.15808 67.197053 243.6685 67.197053 C 242.26225 67.197053 241.14086 66.843234 240.30753 66.134901 C 239.48462 65.426567 238.93881 64.316666 238.66798 62.806249 L 234.1673 63.243606 C 234.46938 65.806106 235.39663 67.760006 236.94872 69.103756 C 238.5008 70.43709 240.72527 71.103102 243.6211 71.103102 C 245.61069 71.103102 247.2732 70.82787 248.60654 70.275786 C 249.93987 69.713286 250.96903 68.859958 251.6982 67.714125 C 252.42736 66.568292 252.79267 65.338177 252.79267 64.025677 C 252.79267 62.577761 252.48514 61.363795 251.87055 60.384628 C 251.26639 59.395045 250.42239 58.620304 249.33906 58.057804 C 248.26614 57.484887 246.60577 56.932269 244.35577 56.401019 C 242.10577 55.869769 240.68834 55.358776 240.10501 54.869193 C 239.64668 54.483776 239.41774 54.021228 239.41774 53.479561 C 239.41774 52.885811 239.66283 52.41178 240.15241 52.057613 C 240.91283 51.50553 241.96496 51.228143 243.3087 51.228143 C 244.61079 51.228143 245.58433 51.489381 246.23016 52.010215 C 246.88641 52.520631 247.31415 53.36463 247.51207 54.541714 L 252.13771 54.339194 C 252.06479 52.235027 251.29723 50.551694 249.83889 49.291277 C 248.39098 48.030861 246.2311 47.40181 243.3561 47.40181 z M 41.620426 47.791768 L 41.620426 70.698062 L 46.246067 70.698062 L 46.246067 63.775759 L 49.996994 59.947271 L 56.292346 70.698062 L 62.277456 70.698062 L 53.18345 56.713416 L 61.807782 47.791768 L 55.58999 47.791768 L 46.246067 57.963007 L 46.246067 47.791768 L 41.620426 47.791768 z M 64.526719 47.791768 L 64.526719 70.698062 L 69.15236 70.698062 L 69.15236 47.791768 L 64.526719 47.791768 z M 73.573326 47.791768 L 73.573326 70.698062 L 78.198967 70.698062 L 78.198967 61.134383 L 79.13616 61.134383 C 80.19866 61.134383 80.975556 61.224453 81.465139 61.401537 C 81.954723 61.568203 82.41727 61.885061 82.85477 62.353811 C 83.29227 62.812144 84.106127 63.931375 85.293627 65.712625 L 88.63736 70.698062 L 94.167877 70.698062 L 91.371379 66.229697 C 90.267212 64.448447 89.386252 63.209004 88.730002 62.511087 C 88.084169 61.81317 87.260983 61.172636 86.260983 60.589303 C 88.271399 60.297636 89.783565 59.594663 90.793981 58.480079 C 91.804398 57.355079 92.308572 55.932985 92.308572 54.214235 C 92.308572 52.860068 91.975566 51.655431 91.308899 50.603348 C 90.642232 49.551265 89.751943 48.822814 88.63736 48.416564 C 87.533193 47.999897 85.75728 47.791768 83.309363 47.791768 L 73.573326 47.791768 z M 103.26188 47.791768 L 94.340234 70.698062 L 99.245956 70.698062 L 101.13758 65.495024 L 110.29191 65.495024 L 112.29341 70.698062 L 117.32409 70.698062 L 108.15252 47.791768 L 103.26188 47.791768 z M 119.82327 47.791768 L 119.82327 70.698062 L 124.12143 70.698062 L 124.12143 55.761142 L 133.35548 70.698062 L 137.9962 70.698062 L 137.9962 47.791768 L 133.70019 47.791768 L 133.70019 63.088484 L 124.32395 47.791768 L 119.82327 47.791768 z M 190.87113 47.791768 L 190.87113 70.698062 L 199.57518 70.698062 C 201.28351 70.698062 202.64783 70.536223 203.66866 70.213307 C 205.03324 69.775807 206.11551 69.167569 206.9176 68.386319 C 207.9801 67.355069 208.79862 66.004742 209.37154 64.338075 C 209.84029 62.973492 210.07389 61.347933 210.07389 59.462516 C 210.07389 57.316683 209.82414 55.515292 209.32414 54.056958 C 208.82414 52.588208 208.09569 51.348765 207.13736 50.338348 C 206.17902 49.327932 205.0275 48.624959 203.68374 48.229125 C 202.68374 47.937459 201.2315 47.791768 199.32526 47.791768 L 190.87113 47.791768 z M 213.99502 47.791768 L 213.99502 70.698062 L 231.4182 70.698062 L 231.4182 66.839411 L 218.62066 66.839411 L 218.62066 60.604384 L 230.12121 60.604384 L 230.12121 56.743579 L 218.62066 56.743579 L 218.62066 51.6655 L 230.98084 51.6655 L 230.98084 47.791768 L 213.99502 47.791768 z M 265.51264 47.791768 L 265.51264 70.698062 L 269.80865 70.698062 L 269.80865 52.667327 L 274.33949 70.698062 L 278.79277 70.698062 L 283.34085 52.667327 L 283.34085 70.698062 L 287.63686 70.698062 L 287.63686 47.791768 L 280.69948 47.791768 L 276.59091 63.415963 L 272.43279 47.791768 L 265.51264 47.791768 z M 292.23019 47.791768 L 292.23019 70.698062 L 309.65336 70.698062 L 309.65336 66.839411 L 296.85583 66.839411 L 296.85583 60.604384 L 308.35637 60.604384 L 308.35637 56.743579 L 296.85583 56.743579 L 296.85583 51.6655 L 309.21385 51.6655 L 309.21385 47.791768 L 292.23019 47.791768 z M 176.18413 51.353102 C 178.09038 51.353102 179.61654 52.000456 180.76237 53.292123 C 181.91862 54.583789 182.49672 56.542354 182.49672 59.167354 C 182.49672 61.823604 181.90247 63.816976 180.71497 65.150309 C 179.53789 66.473226 178.02788 67.134573 176.18413 67.134573 C 174.34038 67.134573 172.81889 66.468561 171.62097 65.135228 C 170.42305 63.791478 169.82414 61.823584 169.82414 59.229834 C 169.82414 56.594417 170.4069 54.624369 171.57357 53.322285 C 172.74024 52.009785 174.27788 51.353102 176.18413 51.353102 z M 78.198967 51.6655 L 81.807699 51.6655 C 83.682699 51.6655 84.808749 51.693129 85.183749 51.745215 C 85.933749 51.870215 86.511845 52.170925 86.918095 52.650092 C 87.334762 53.118842 87.542891 53.738563 87.542891 54.509397 C 87.542891 55.196897 87.385717 55.770328 87.073217 56.228661 C 86.760717 56.686995 86.330466 57.010671 85.778382 57.198171 C 85.226299 57.385671 83.839011 57.478252 81.620261 57.478252 L 78.198967 57.478252 L 78.198967 51.6655 z M 195.49677 51.6655 L 197.57368 51.6655 C 199.45909 51.6655 200.72617 51.739422 201.372 51.885256 C 202.23659 52.072756 202.94889 52.431239 203.51139 52.962489 C 204.07389 53.493739 204.51096 54.233674 204.82346 55.18159 C 205.13596 56.129507 205.29313 57.489163 205.29313 59.259996 C 205.29313 61.03083 205.13596 62.432112 204.82346 63.463362 C 204.51096 64.484195 204.10618 65.219465 203.60618 65.667381 C 203.1166 66.115298 202.49688 66.432156 201.74688 66.619656 C 201.17397 66.765489 200.23989 66.839411 198.94823 66.839411 L 195.49677 66.839411 L 195.49677 51.6655 z M 105.65334 53.134847 L 108.80963 61.634219 L 102.55953 61.634219 L 105.65334 53.134847 z M 256.65132 66.307258 L 256.65132 70.698062 L 261.04212 70.698062 L 261.04212 66.307258 L 256.65132 66.307258 z "
     transform="matrix(0.90654671,0,0,0.90654671,0.6246086,-39.303986)" />
  <g
     id="g9"
     inkscape:label="logo-design-1"
     style="display:none"
     transform="translate(-1.8652344,-0.71484375)">
    <g
       id="g80837"
       transform="matrix(0.24520289,-0.01456706,0.01456706,0.24520289,-0.62831505,0.34903302)"
       clip-path="url(#clipPath80841)"
       style="display:inline">
      <path
         id="path46364"
         style="display:inline;fill:#000000;fill-opacity:1;stroke:none;stroke-width:0.0881977px;stroke-linecap:butt;stroke-linejoin:miter;stroke-opacity:1"
         d="m 77.102856,23.83575 -5.638148,0.203427 -5.204248,0.942557 -4.388231,1.253495 -5.980096,2.107818 -4.027034,1.517224 -3.015744,1.146599 -0.09714,0.162473 -3.184857,1.614363 -1.350517,3.022179 0.248323,0.35124 2.351844,-1.865744 a 0.78917854,0.78917854 0 0 1 0.119183,-0.08041 l 6.87453,-3.683278 a 0.78917854,0.78917854 0 0 1 0.07616,-0.03585 L 55.963176,29.63938 A 0.78917854,0.78917854 0 0 1 56.48313,29.6097 l 3.646441,1.037657 a 0.78917854,0.78917854 0 0 0 0.0067,3.98e-4 l 5.304567,1.560137 a 0.78917854,0.78917854 0 0 1 0.07928,0.0249 l 3.756991,1.555684 a 0.78917854,0.78917854 0 0 0 0.0067,3.99e-4 l 1.949872,0.822461 3.263469,-0.445449 a 0.78917854,0.78917854 0 0 0 0.0067,3.99e-4 l 7.083541,-0.857831 1.265262,-2.266782 a 0.78917854,0.78917854 0 0 1 0.03672,-0.05166 l 1.43205,-2.129009 -1.206758,-1.323423 -3.973907,-3.002006 z m 10.28326,2.488508 -0.924378,0.83341 -0.778172,1.091096 -2.140373,3.177147 -1.461134,2.618553 -7.476477,0.901784 -3.480851,0.479642 -2.146672,-0.90818 -3.750684,-1.54858 -5.317979,-1.560933 -3.639736,-1.037259 -2.083001,0.852065 -6.881236,3.682881 -4.534377,3.600222 -1.738669,1.626252 -0.915348,0.907973 -1.202714,1.21393 -1.042364,0.893698 -1.778443,2.182458 -0.850944,1.4098 -0.675589,1.063542 -0.440679,1.413985 5.156496,4.505696 2.323683,1.780103 0.308346,0.247129 0.202446,-0.802272 0.801078,-0.45714 2.29109,-1.182919 2.945497,-1.776638 1.491207,-0.745898 5.482386,-2.339279 7.098218,-2.350961 1.820933,-0.632093 6.0038,-2.166978 2.240228,-0.553345 5.57846,-1.351029 2.895365,-0.366371 2.642127,-0.408334 4.371166,-0.399832 4.898355,0.01508 2.214531,0.219048 0.633491,0.0982 0.129209,-0.362459 0.686614,-2.381916 1.633506,-5.293479 0.287765,-0.992366 c -1.105293,-1.076915 -2.26286,-2.101897 -3.479582,-3.053395 -0.18432,-0.08719 -0.641658,-0.30058 -0.641658,-0.30058 l -1.82644,-0.747831 -2.711642,-0.800419 z m -57.487986,1.968535 -4.323691,0.167111 -3.819674,0.405676 -2.466243,0.50627 -3.260151,1.522404 0.66662,1.466307 0.985988,1.754471 1.271031,1.374349 1.748821,1.26141 1.953059,0.768813 1.116527,0.463385 c 1.855041,-3.450365 4.087201,-6.654934 6.62549,-9.573137 z m 9.552164,3.353589 c -3.528087,3.451899 -6.485322,7.519693 -8.684592,12.06195 l 1.031142,0.08818 2.815887,-0.04807 1.726383,-0.173358 0.820334,-1.007835 a 0.9196596,0.9196596 0 0 1 0.114468,-0.114335 l 1.014346,-0.875173 1.174296,-1.188699 a 0.9196596,0.9196596 0 0 0 0.0071,-0.0063 l 0.91495,-0.901267 a 0.9196596,0.9196596 0 0 1 0.01501,-0.02603 l 1.745376,-1.625854 a 0.9196596,0.9196596 0 0 1 0.04973,-0.04415 l 1.482775,-1.170373 -0.02563,-0.02171 -1.008298,-1.37893 -1.540998,-1.814361 -1.422017,-1.551563 z m 53.172303,9.505016 -4.797366,-0.01581 -4.310413,0.396711 -2.608198,0.40362 a 0.9196596,0.9196596 0 0 1 -0.02012,-0.0012 l -2.848024,0.362453 -5.530721,1.340406 -2.192091,0.536016 -5.95606,2.156355 a 0.9196596,0.9196596 0 0 0 -0.0067,-3.99e-4 l -0.797028,0.275678 1.48715,2.154379 1.192151,1.342745 1.422216,1.208358 1.376602,0.956647 1.0002,0.382448 1.766486,0.05783 1.260012,-0.02609 1.965411,-0.118779 0.0095,-0.04654 -0.35323,-0.39785 -0.956909,-0.884607 -0.594846,-0.748691 -1.011553,-1.21088 1.058497,0.533965 1.388088,0.876573 1.520817,0.568161 2.273159,0.478261 2.712705,0.3294 0.006,-0.100591 -0.368699,-0.930418 -0.317108,-1.459004 0.271364,0.07669 0.402031,0.595912 1.130734,1.130474 1.39413,1.341284 1.636744,1.335508 0.997875,0.987987 1.01766,1.561189 0.687735,1.110886 0.733216,1.591399 0.596904,1.280463 0.262133,0.34533 0.103447,-0.155368 0.407746,-1.765887 0.240822,-0.315451 0.727242,1.012287 0.673923,1.796499 0.217245,2.23372 0.07011,1.538546 -0.02517,2.575996 -0.08997,2.760578 -0.08181,2.283252 0.410069,-1.012019 0.490808,-1.464844 0.472882,-1.842775 0.506279,-1.61198 0.984602,-1.960428 0.784612,-0.633092 0.714629,-0.361329 0.51006,0.02357 0.850939,0.62931 0.442468,0.255097 0.413056,-0.722462 0.750491,-3.683691 0.445065,-3.526862 -0.153899,-3.97969 -0.587006,-3.372824 -0.767075,-3.060495 -2.061874,-4.940986 -0.160414,-0.245071 a 0.9196596,0.9196596 0 0 1 -0.428459,0.07549 l -0.607065,-0.0899 z m -29.917334,5.611921 -0.219773,0.07443 a 0.78917854,0.78917854 0 0 0 -0.0067,-3.98e-4 l -1.071246,0.360332 a 0.79304095,0.79304095 0 0 1 -3.98e-4,0.0067 0.79304095,0.79304095 0 0 1 -3.99e-4,0.0067 0.79304095,0.79304095 0 0 1 -3.98e-4,0.0067 0.79304095,0.79304095 0 0 1 -3.98e-4,0.0067 0.79304095,0.79304095 0 0 1 -3.99e-4,0.0067 0.79304095,0.79304095 0 0 1 -3.98e-4,0.0067 0.79304095,0.79304095 0 0 1 -3.99e-4,0.0067 0.79304095,0.79304095 0 0 1 -3.98e-4,0.0067 0.79304095,0.79304095 0 0 1 -3.98e-4,0.0067 0.79304095,0.79304095 0 0 1 -3.99e-4,0.0067 0.79304095,0.79304095 0 0 1 -3.98e-4,0.0067 0.79304095,0.79304095 0 0 1 -3.99e-4,0.0067 0.79304095,0.79304095 0 0 1 -3.98e-4,0.0067 0.79304095,0.79304095 0 0 1 -3.98e-4,0.0067 0.79304095,0.79304095 0 0 1 -3.99e-4,0.0067 0.79304095,0.79304095 0 0 1 -3.98e-4,0.0067 0.79304095,0.79304095 0 0 1 -3.98e-4,0.0067 0.79304095,0.79304095 0 0 1 -3.99e-4,0.0067 0.79304095,0.79304095 0 0 1 -3.98e-4,0.0067 0.79304095,0.79304095 0 0 1 -0.0079,0.01972 0.79304095,0.79304095 0 0 1 -3.98e-4,0.0067 0.79304095,0.79304095 0 0 1 -3.98e-4,0.0067 0.79304095,0.79304095 0 0 1 -0.0083,0.02643 0.79304095,0.79304095 0 0 1 -0.0079,0.01972 0.79304095,0.79304095 0 0 1 -0.0166,0.05285 l -0.490409,1.458139 -0.647108,2.283317 a 0.79304095,0.79304095 0 0 1 -0.0174,0.06626 l -1.544,4.013416 0.987918,-0.203769 2.171241,0.0415 1.939382,0.545919 1.550494,1.088114 0.71529,1.213469 -0.269573,0.912689 -0.880887,0.66775 -1.12589,0.03406 -1.860105,-0.521019 -1.351703,-1.035926 -1.189562,-1.046482 -1.180334,-0.63542 a 0.79304095,0.79304095 0 0 1 -0.032,0.08559 l -0.171039,0.386893 -0.683824,1.65527 a 0.79304095,0.79304095 0 0 1 -0.0174,0.06626 l -0.929692,1.829096 -0.722335,2.076956 a 0.79304095,0.79304095 0 0 1 -0.0245,0.07257 l -0.441209,0.96979 -0.557805,2.705866 0.659587,-0.680897 1.406684,-1.24892 1.194945,-0.74331 1.220771,-0.385098 1.64239,0.447518 1.706528,0.727247 1.746033,1.308353 0.646902,0.778702 0.716418,1.307753 0.472144,1.454754 -0.08705,1.125425 -0.690263,1.197265 -2.277278,0.497307 -1.780894,0.297984 -1.832087,0.14016 -1.5991,0.409731 -1.579314,0.30323 -1.227545,0.499102 -0.947483,0.542659 -0.602817,0.06513 -0.0324,0.771996 -0.137848,3.679708 a 0.79304095,0.79304095 0 0 0 -3.98e-4,0.0067 0.79304095,0.79304095 0 0 0 -3.99e-4,0.0067 0.79304095,0.79304095 0 0 0 -3.98e-4,0.0067 l -0.338435,4.677253 0.03359,1.926702 1.558393,2.427801 3.05305,2.530056 2.855257,1.441547 5.181998,2.037396 5.873656,0.476808 4.921862,-1.060279 3.510733,-1.662301 3.537093,-2.219304 3.428071,-2.649755 1.685089,-2.423544 1.71935,-2.320564 1.360412,-3.755132 0.08452,-0.856385 2.758721,-0.785003 2.771141,-2.4667 1.624204,-2.871325 0.269776,-2.615302 L 98.270848,65.586 A 0.79304095,0.79304095 0 0 1 97.5363,65.60293 l -0.448775,-0.262202 a 0.79304095,0.79304095 0 0 1 -0.07768,-0.05172 l -0.644313,-0.48244 -0.05365,-0.0032 -0.464844,0.234844 -0.586484,0.469888 -0.871262,1.751811 -0.480982,1.525996 -0.472085,1.829362 a 0.79304095,0.79304095 0 0 1 -0.0166,0.05285 l -0.49041,1.458138 a 0.79304095,0.79304095 0 0 1 -0.02331,0.05245 l -0.409671,1.005312 a 0.79304095,0.79304095 0 0 1 -0.489411,0.421818 0.79304095,0.79304095 0 0 1 -0.135715,0.01886 0.79304095,0.79304095 0 0 1 -0.504881,-0.110751 0.79304095,0.79304095 0 0 1 -0.116725,-0.07423 0.79304095,0.79304095 0 0 1 -0.275015,-0.581637 l 0.0751,-2.28365 0.09548,-2.740062 0.03028,-2.548772 -0.0729,-1.491604 -0.211004,-2.112214 -0.398577,-1.107167 -0.09648,0.377864 a 0.79304095,0.79304095 0 0 1 -0.117323,0.275679 l -0.109754,0.148263 a 0.79304095,0.79304095 0 0 1 -0.563112,0.303034 0.79304095,0.79304095 0 0 1 -0.141226,-0.0017 0.79304095,0.79304095 0 0 1 -0.575792,-0.276478 l -0.262134,-0.34533 a 0.79304095,0.79304095 0 0 1 -0.08592,-0.139699 L 87.944221,59.63578 a 0.79304095,0.79304095 0 0 0 3.98e-4,-0.0067 L 87.229149,58.079308 86.578463,57.024461 85.603364,55.539828 84.700901,54.644996 83.089786,53.3312 a 0.79304095,0.79304095 0 0 1 -0.05126,-0.04342 l -1.190292,-1.147471 a 0.79304095,0.79304095 0 0 1 -0.869467,0.702077 l -2.712706,-0.3294 a 0.79304095,0.79304095 0 0 1 -0.07377,-0.0044 L 75.92544,52.03743 a 0.79304095,0.79304095 0 0 1 -0.112011,-0.0403 l -0.263462,-0.09641 0.07569,0.08525 a 0.79304095,0.79304095 0 0 1 0.09342,0.126685 0.79304095,0.79304095 0 0 1 0.0662,0.131798 0.79304095,0.79304095 0 0 1 -3.98e-4,0.0067 0.79304095,0.79304095 0 0 1 -3.99e-4,0.0067 0.79304095,0.79304095 0 0 1 0.03227,0.136511 0.79304095,0.79304095 0 0 1 0.01215,0.135317 0.79304095,0.79304095 0 0 1 -3.98e-4,0.0067 0.79304095,0.79304095 0 0 1 -3.99e-4,0.0067 0.79304095,0.79304095 0 0 1 -3.98e-4,0.0067 0.79304095,0.79304095 0 0 1 -3.98e-4,0.0067 0.79304095,0.79304095 0 0 1 -3.99e-4,0.0067 0.79304095,0.79304095 0 0 1 -3.98e-4,0.0067 0.79304095,0.79304095 0 0 1 -3.99e-4,0.0067 0.79304095,0.79304095 0 0 1 -0.02098,0.126618 l -0.0095,0.04654 a 0.79304095,0.79304095 0 0 1 -0.722265,0.603147 l -1.96581,0.125485 a 0.79304095,0.79304095 0 0 1 -0.02682,-0.0016 l -1.259613,0.01938 a 0.79304095,0.79304095 0 0 1 -0.04064,0.0043 l -1.766486,-0.05784 a 0.79304095,0.79304095 0 0 1 -0.25244,-0.05538 l -1.014011,-0.376539 a 0.79304095,0.79304095 0 0 1 -0.169577,-0.09083 l -1.376602,-0.956648 a 0.79304095,0.79304095 0 0 1 -0.05796,-0.04382 L 65.721589,50.70433 a 0.79304095,0.79304095 0 0 1 -0.0832,-0.07224 l -1.192151,-1.342744 a 0.79304095,0.79304095 0 0 1 -0.04927,-0.07695 L 62.772244,46.8816 a 0.79304095,0.79304095 0 0 1 -0.05398,-0.110882 z m -2.246736,0.889446 -5.004261,1.65433 -5.42004,2.309334 -1.435965,0.722261 -2.917079,1.751407 a 0.9196596,0.9196596 0 0 1 -0.04894,0.03074 l -2.277279,1.17701 -0.445921,0.256158 -0.10597,0.424408 a 0.9196596,0.9196596 0 0 1 -0.09555,0.135648 l -0.756393,0.271362 -0.0088,0.261935 -0.119455,3.256828 -0.08971,2.302972 0.03851,0.937721 9.96e-4,0.323087 0.106495,2.058898 -0.244407,0.375805 -0.147268,0.213332 -0.861765,0.345859 1.892571,0.99403 1.131463,1.911167 0.299779,1.410866 0.320823,2.529253 0.136971,2.565438 -0.08825,1.825247 0.0798,1.828501 0.162138,1.348851 0.436689,1.371891 0.941966,2.155639 1.037314,1.003789 -0.454283,-1.642126 -0.277733,-2.008503 0.06381,-1.867077 0.410736,-2.835738 0.200922,-2.249257 -0.008,-1.904989 -0.10736,-1.931084 -0.12389,-2.672338 0.08665,-1.798422 0.467297,1.649629 a 0.5732653,0.5732653 3.4752503 0 1 0.02596,0.129407 l 0.117982,2.658527 0.10696,1.93779 a 0.5732653,0.5732653 3.4752503 0 1 -3.98e-4,0.0067 0.5732653,0.5732653 3.4752503 0 1 -3.98e-4,0.0067 0.5732653,0.5732653 3.4752503 0 1 -3.99e-4,0.0067 0.5732653,0.5732653 3.4752503 0 1 -3.98e-4,0.0067 l 0.008,1.90499 a 0.5732653,0.5732653 3.4752503 0 0 -7.97e-4,0.01341 0.5732653,0.5732653 3.4752503 0 0 -3.98e-4,0.0067 0.5732653,0.5732653 3.4752503 0 0 -3.98e-4,0.0067 0.5732653,0.5732653 3.4752503 0 0 -3.99e-4,0.0067 0.5732653,0.5732653 3.4752503 0 0 -3.98e-4,0.0067 0.5732653,0.5732653 3.4752503 0 0 -3.99e-4,0.0067 0.5732653,0.5732653 3.4752503 0 0 -7.96e-4,0.01341 l -0.193818,2.242949 a 0.5732653,0.5732653 3.4752503 0 1 -3.98e-4,0.0067 0.5732653,0.5732653 3.4752503 0 1 -3.98e-4,0.0067 0.5732653,0.5732653 3.4752503 0 1 -3.99e-4,0.0067 0.5732653,0.5732653 3.4752503 0 1 -3.98e-4,0.0067 l -0.415451,2.80181 -0.05943,1.79331 0.269102,1.927233 0.436555,1.600695 a 0.5732653,0.5732653 3.4752503 0 1 -0.955385,0.562378 l -1.029811,-1.016802 a 0.5732653,0.5732653 3.4752503 0 1 -0.131266,-0.169312 l -0.941966,-2.15564 a 0.5732653,0.5732653 3.4752503 0 1 -0.02364,-0.05524 l -0.43629,-1.378597 a 0.5732653,0.5732653 3.4752503 0 1 -0.01374,-0.108492 l -0.162935,-1.335439 a 0.5732653,0.5732653 3.4752503 0 1 -0.0043,-0.04063 l -0.02105,-0.438683 -0.885665,-0.611184 -1.135381,-1.278805 -0.793439,-1.144084 -0.829558,-1.442339 -0.830088,-1.886533 -0.178011,0.164398 -1.386369,2.266317 -2.260224,5.081274 -0.73741,3.576792 0.05377,3.172902 0.574857,2.557804 c 1.758661,2.28325 3.738576,4.385669 5.913282,6.26674 l 2.481844,0.477199 a 0.78976589,0.78976589 0 0 1 0.07928,0.0249 l 2.076225,0.621345 a 0.78976589,0.78976589 0 0 1 0.209416,0.09993 l 2.065135,1.374418 a 0.78976589,0.78976589 0 0 1 0.06467,0.04422 l 0.160481,0.130669 0.07861,-0.190492 0.229667,-0.12768 1.666225,0.839258 1.175553,0.715893 2.044621,0.700227 0.803268,-0.15417 a 0.78976589,0.78976589 0 0 1 0.151851,-0.630308 l -0.700881,-1.569289 -0.639128,-3.288434 -1.138485,-8.816298 -0.05245,-2.74212 0.346735,-4.703679 0.137848,-3.679709 0.04123,-1.03393 -0.59591,-0.277673 -0.4586,-1.003057 -0.02131,-0.660781 0.60946,-1.989445 0.88753,-1.912357 0.518361,-0.682558 0.117922,-0.62559 0.735817,-3.549968 0.479919,-1.054977 0.738934,-2.129808 0.945893,-1.875241 0.678313,-1.675787 0.185646,-0.406215 -0.231127,-0.0743 -1.498575,-0.149596 1.721736,-0.321688 0.293141,-0.06334 0.216455,-0.471682 1.544796,-4.026828 0.648303,-2.303435 z m -6.817207,52.901275 -4.347926,-0.21792 -0.48483,0.68455 c 2.231172,1.20942 4.578365,2.23476 7.034332,3.02903 l -1.308805,-3.57049 z m 28.965628,-46.571821 1.115066,0.261407 -0.578781,0.11367 -1.227809,0.277004 -0.791252,0.518292 -1.231662,0.794965 -1.609527,1.378194 -1.585425,1.312329 -1.296065,0.293139 -0.967798,-0.474739 0.02457,-0.866677 0.265656,-0.960031 0.510992,-0.898347 1.588412,-1.022772 1.909307,-0.647032 2.302308,-0.125684 z m 0.486672,6.987464 1.676717,0.436098 1.540071,0.697169 1.070647,0.669282 1.370227,1.063945 0.895225,1.129942 0.481241,1.414916 0.253566,1.509067 -0.06394,1.416176 -0.190229,0.823187 -0.600228,0.361396 -1.216853,-0.247264 -2.124894,-0.368507 -2.447982,-0.367511 -1.971719,0.111674 -1.588609,0.0066 -1.32269,-0.05166 -1.424209,-0.495124 -0.158489,-0.1642 -0.223091,-1.002525 0.205701,-1.650026 0.549968,-1.44114 0.769076,-1.051259 1.393472,-1.592921 1.537951,-1.079608 z m -1.329003,2.660051 -0.870728,0.156893 -1.177017,0.441536 -0.742715,0.494256 -0.58456,1.230464 -0.338029,1.272028 0.138568,1.179207 0.0094,0.06786 0.804197,0.283317 1.195275,0.04409 0.06746,-0.0027 -0.0059,-0.01381 -0.01182,-0.707325 0.07815,-0.749088 0.337231,-0.578913 0.418433,-0.473142 0.540935,-0.156297 0.541997,0.05239 0.447579,0.282321 0.29905,0.630172 0.181394,0.798156 0.08877,0.658058 -0.02377,0.173562 0.533365,-0.02888 a 0.82445211,0.82445211 89.949867 0 1 0.167652,0.01 l 1.974241,0.298989 -0.01945,-0.465508 -0.104441,-0.847422 -0.42872,-1.506012 -0.446915,-0.746633 -0.561715,-0.739993 -1.103778,-0.67798 z m -21.088348,1.654427 -1.571811,0.290217 -1.296664,0.64305 -0.773524,0.559723 -0.768014,1.259943 -0.408077,0.978488 -0.155106,1.478058 0.145007,1.637212 0.01653,0.06155 a 0.97532995,0.97532995 0 0 1 0.102583,-0.02755 l 1.552091,-0.298118 1.571878,-0.404619 a 0.97532995,0.97532995 0 0 1 0.08127,-0.0086 l -0.209082,-0.671936 0.01912,-1.001595 0.312532,-0.84284 0.587347,-0.597702 0.629376,-0.285638 0.886196,0.375675 0.487484,0.856719 0.116657,0.868337 -0.03997,0.89941 -0.02609,0.0994 0.829296,-0.139165 1.834211,-0.402494 c 0.01715,-0.584694 -0.02941,-0.977559 -0.02941,-0.977559 l -0.117719,-1.077022 -0.4341,-1.075629 -0.713033,-1.024902 -1.156563,-0.808981 z m -20.788299,1.248279 -0.574797,0.04661 -0.786276,2.133725 0.449699,2.738802 0.226479,0.605671 a 0.79304095,0.79304095 0 0 1 0.851869,0.387095 l 0.812759,1.838396 0.792907,1.379594 0.743376,1.080542 1.041165,1.165532 0.135648,0.09555 0.03792,-2.110886 -0.146864,-2.512189 -0.303893,-2.474409 -0.269103,-1.247529 -0.947412,-1.610854 -1.690659,-0.881089 A 0.79304095,0.79304095 0 0 1 39.88797,66.53244 Z m 53.602218,10.99091 -1.136315,0.322819 -0.03453,0.354625 a 0.74076573,0.74076573 0 0 1 -0.04389,0.172366 l -1.36081,3.761838 a 0.74076573,0.74076573 0 0 1 -0.09873,0.189297 l -1.705539,2.314654 -1.691397,2.41644 a 0.74076573,0.74076573 0 0 1 -0.150787,0.159286 l -3.421365,2.650153 a 0.74076573,0.74076573 0 0 1 -0.06314,0.04336 l -3.537093,2.219304 a 0.74076573,0.74076573 0 0 1 -0.07656,0.04256 l -3.490216,1.656791 a 0.8798002,0.8798002 0 0 1 0.100391,0.34918 l -0.01129,0.416574 a 0.8798002,0.8798002 0 0 1 0.0047,0.03393 l -0.223567,3.876509 -3.98e-4,0.0067 c -2.87e-4,0.0057 -0.03686,0.573285 -0.06222,1.160549 -0.01274,0.295114 -0.01476,0.590615 -0.02178,0.819735 -0.0035,0.11456 -0.009,0.20999 -0.0096,0.27535 -6.07e-4,0.0653 0.03148,0.23027 -0.01261,-0.0142 0.03899,0.21603 0.02862,0.242 0.03213,0.36531 0.0035,0.12331 0.0022,0.26114 0.0033,0.39726 0.002,0.24289 -8.63e-4,0.42495 -0.0011,0.47101 l 0.183184,1.78754 0.242678,1.23923 0.125688,0.2632 C 85.560504,103.5695 93.218626,99.247506 99.131754,93.121557 L 97.512745,88.428962 95.233088,84.208579 93.850713,81.64991 93.295709,78.871204 Z m -10.930977,4.902647 c 0.103941,0.01546 0.143982,0.08094 0.182989,0.09163 -0.0018,0.0269 0.02004,0.06461 0.02676,0.115996 0.0067,0.05138 -0.0017,0.116433 -0.05259,0.205498 -0.140696,0.246445 -0.628258,0.787103 -1.362664,1.527454 -0.734407,0.740351 -1.715659,1.680396 -2.847033,2.724652 a 0.0184143,0.25275998 57.834222 0 1 -0.139699,0.08592 0.0184143,0.25275998 57.834222 0 1 -0.01421,0.01261 0.0184143,0.25275998 57.834222 0 1 -0.09707,0.04807 0.0184143,0.25275998 57.834222 0 1 -0.04103,0.01102 c -0.866754,0.580232 -1.870435,1.212246 -2.900546,1.812957 a 0.0114951,0.45397169 75.190025 0 1 -0.321162,0.08187 0.0114951,0.45397169 75.190025 0 1 -0.15663,0.03107 c -1.220297,0.325678 -2.461712,0.618019 -3.589145,0.829885 a 0.0140588,0.4261669 88.079631 0 1 -0.437887,0.0076 0.0140588,0.4261669 88.079631 0 1 -0.07377,-0.0044 0.0140588,0.4261669 88.079631 0 0 0.0071,-0.0063 c -0.341993,0.0139 -0.660875,0.01087 -0.947947,-0.01594 -0.306437,-0.02861 -0.638427,-0.09088 -0.97902,-0.172567 a 0.31068153,0.01269824 13.00035 0 1 -3.98e-4,0.0067 0.31068153,0.01269824 13.00035 0 1 -0.0067,-3.98e-4 0.31068153,0.01269824 13.00035 0 1 -0.0067,-3.99e-4 0.31068153,0.01269824 13.00035 0 1 -0.41219,-0.08505 c -0.433997,-0.16306 -0.874171,-0.346613 -1.320432,-0.542797 -0.444613,-0.195142 -0.885423,-0.398729 -1.322755,-0.616961 a 0.3915354,0.02282719 25.623974 0 1 -0.452759,-0.195141 c -1.101751,-0.850907 -2.1592,-1.711807 -3.042427,-2.482317 a 0.12371251,0.01035535 37.908958 0 1 -0.05836,-0.03712 0.12371251,0.01035535 37.908958 0 1 -0.08359,-0.06553 C 60.636514,84.3188 59.495092,83.088915 58.964471,82.43074 58.749787,82.16445 58.613129,81.936216 58.520278,81.751566 l 3.98e-4,-0.0067 c -0.09293,-0.185299 -0.144038,-0.323381 -0.197397,-0.415511 0.103306,0.02575 0.248424,0.03566 0.453225,0.07403 l 0.0067,3.98e-4 c 0.006,0.0011 0.01365,0.0067 0.01972,0.0079 0.202227,0.03793 0.451242,0.09695 0.760441,0.226879 0.779409,0.327527 2.26967,1.087435 4.095149,2.093964 l -0.149061,-0.09634 c 1.120354,0.352548 2.414016,0.799563 3.718482,1.297667 l -0.453157,-0.188435 c 0.489198,0.03451 0.980251,0.07791 1.465841,0.134191 l 0.0067,3.98e-4 c 0.483248,0.05612 0.961134,0.125406 1.414516,0.20517 l -0.379457,-0.06965 c 0.36573,-0.01053 0.709425,-0.0034 1.027622,0.03413 0.275787,0.03256 0.580052,0.09413 0.898149,0.174492 1.019361,-0.01429 2.121468,0.01058 3.213072,0.06302 l -0.484497,0.112542 c 1.170575,-0.227459 2.342895,-0.411213 3.37714,-0.546372 1.114216,-0.590115 2.050763,-1.062239 2.87983,-1.464241 0.621862,-0.302148 1.178176,-0.565875 1.570883,-0.727705 0.304047,-0.125295 0.532163,-0.20478 0.666425,-0.229599 0.05043,-0.0093 0.09356,-0.01102 0.128212,-0.0058 z m -29.544646,4.436167 1.023024,7.927843 0.619474,3.166131 0.5815,1.313196 2.941579,-1.144275 0.395991,-0.548503 0.240692,-1.446054 0.266857,-3.698964 a 0.8798002,0.8798002 0 0 1 0.188435,-0.453157 l -2.097671,-1.053323 a 0.74076573,0.74076573 0 0 1 -0.136047,-0.08884 l -3.05305,-2.530056 a 0.74076573,0.74076573 0 0 1 -0.144678,-0.170109 z m 6.95392,5.628669 -0.270044,3.752612 -0.294872,1.678376 -0.654209,0.930218 -3.540943,1.377861 a 0.72154834,0.72154834 0 0 1 0.0063,0.007 l 1.488008,4.06568 c 3.058837,0.91717 6.266208,1.50959 9.589416,1.70701 3.361613,0.19971 6.653288,-0.0169 9.832964,-0.58008 l -0.0662,-0.1318 -0.266646,-1.40217 -0.192215,-1.8621 c 0,0 0.0053,-0.99025 -0.02025,-1.1318 -0.02553,-0.14156 0.09137,-2.444193 0.09137,-2.444193 l 0.223965,-3.883214 0.005,-0.423678 -4.294943,0.929279 a 0.87196677,0.87196677 0 0 1 -0.249719,0.01208 L 65.481802,94.61521 A 0.87196677,0.87196677 0 0 1 65.22976,94.55313 l -5.181997,-2.037396 a 0.87196677,0.87196677 0 0 1 -0.07928,-0.0249 z m -17.369139,4.412491 c 1.75237,1.399416 3.6054,2.66732 5.56995,3.776526 l 0.52945,-0.755924 a 0.72154834,0.72154834 0 0 1 0.04263,-0.03785 l -0.956179,-0.783616 -2.071841,-1.374816 -2.06952,-0.620948 z m 6.959969,2.694861 a 0.8798002,0.8798002 0 0 1 0.01142,0.03433 l 0.06036,0.0036 z m -16.344894,0.765255 -0.695309,1.05564 -1.034203,3.13518 -1.865569,8.18022 -0.398518,2.17695 5.006635,5.78217 a 0.72154834,0.72154834 0 0 1 0.137376,-0.16008 l 4.278147,-1.89263 1.693058,-3.23737 1.641537,-4.1826 a 0.72154834,0.72154834 0 0 1 0.02331,-0.0525 l 1.385508,-2.81821 a 0.72154834,0.72154834 0 0 1 0.01421,-0.0126 l 0.08333,-0.15657 c -3.753078,-2.16793 -7.194158,-4.80258 -10.269504,-7.81764 z m 66.541968,3.99351 c -1.698531,1.3064 -3.471276,2.5066 -5.321377,3.59385 l 3.394335,0.41027 a 0.8798002,0.8798002 0 0 1 0.09349,0.0123 l 0.531306,0.11905 0.21931,-0.63303 1.080151,-3.45548 z m -6.603102,4.32527 c -0.301127,0.16551 -0.605769,0.32477 -0.910367,0.4843 l 1.13936,3.93056 a 0.72154834,0.72154834 0 0 1 0.01693,0.0548 l 0.770327,3.57215 3.941895,6.48611 3.493068,0.22098 a 0.72154834,0.72154834 0 0 1 0.6064,0.55421 l 10.98449,-2.63154 -0.47799,-0.22356 c 0,0 -0.62641,0.0824 -0.76615,0.0958 -0.13973,0.0134 -0.74717,0.003 -0.74717,0.003 l -0.12874,-0.43836 -0.28006,-1.40296 -0.24566,-0.84908 -0.35011,-1.0168 -0.56942,-1.06348 -0.39054,-0.67599 -0.6882,-0.98978 -0.98506,-1.31698 -0.89549,-0.67233 -1.2373,-1.03586 -0.73508,-0.42727 -1.88321,-0.81177 -2.22854,-0.54964 -1.993033,-0.5491 -0.869731,-0.19972 -3.608132,-0.43644 z m -1.576858,0.8283 c -1.860997,0.9402 -3.784418,1.77549 -5.760191,2.48429 l -0.274684,0.20576 -3.568299,1.61177 -5.904799,0.84038 -1.450902,-0.0458 c -2.892009,0.33524 -5.848297,0.43994 -8.851685,0.26152 -7.857018,-0.46677 -15.191661,-2.72015 -21.656886,-6.33391 l -0.07543,0.13685 -1.385507,2.8182 -1.656543,4.20863 -1.822997,3.49884 -4.513325,1.99979 42.288691,3.52849 24.611298,-0.577 -3.861908,-0.24289 -4.199248,-6.91191 -0.803791,-3.68855 z"
         transform="matrix(1.1836032,0,0,1.1836032,-17.312639,-10.275607)" />
    </g>
    <path
       style="stroke-linecap:round;stroke-linejoin:round;paint-order:markers stroke fill"
       d="M 16.044171,0.71484375 C 8.214401,0.71484352 1.864483,7.1795307 1.864483,15.126953 c 0,7.947423 6.349917,14.410157 14.179688,14.410156 7.82977,0 14.179688,-6.462733 14.179687,-14.410156 0,-7.9474221 -6.349917,-14.41210925 -14.179687,-14.41210925 z m 0,1.08593745 c 7.233851,0 13.095703,5.9549949 13.095703,13.3261718 0,7.371178 -5.861851,13.326172 -13.095703,13.326172 -7.233853,0 -13.095704,-5.954994 -13.095703,-13.326172 0,-7.371177 5.861851,-13.326172 13.095703,-13.3261718 z"
       id="path79232" />
  </g>
  <g
     id="g11"
     inkscape:label="logo-design-2"
     style="display:none;fill:#ffffff"
     transform="translate(-1.8652344,-0.71484375)">
    <path
       id="path14"
       style="fill:#ffffff;fill-opacity:1;stroke:none;stroke-width:1.023;stroke-dasharray:none;stroke-opacity:1"
       d="M 16.044922,0.71484375 C 8.2151519,0.71484352 1.8652344,7.1795308 1.8652344,15.126953 c 0,7.947423 6.3499165,14.410157 14.1796876,14.410156 7.82977,0 14.179688,-6.462733 14.179687,-14.410156 0,-7.947422 -6.349917,-14.41210925 -14.179687,-14.41210925 z m 0,1.08593745 c 7.233851,0 13.095703,5.954995 13.095703,13.3261718 0,7.371178 -5.861851,13.326172 -13.095703,13.326172 -7.2338531,0 -13.0957042,-5.954994 -13.0957032,-13.326172 0,-7.3711769 5.8618511,-13.3261719 13.0957032,-13.3261718 z m 1.720703,1.8691407 -1.632813,0.15625 -1.49414,0.3632812 L 13.386719,4.6289062 11.6875,5.34375 10.544922,5.8535156 9.6894531,6.2382812 9.6640625,6.2871094 8.7675781,6.8105469 8.4277344,7.7109375 8.5058594,7.8085938 9.15625,7.2265625 a 0.22944153,0.22944153 0 0 1 0.033203,-0.025391 l 1.931641,-1.1875 a 0.22944153,0.22944153 0 0 1 0.02148,-0.011719 L 11.730469,5.71875 a 0.22944153,0.22944153 0 0 1 0.15039,-0.017578 l 1.076172,0.2382812 a 0.22944153,0.22944153 0 0 0 0.002,0 l 1.566407,0.3613281 a 0.22944153,0.22944153 0 0 1 0.02344,0.00586 l 1.117188,0.3867188 a 0.22944153,0.22944153 0 0 0 0.002,0 L 16.248047,6.8984375 17.1875,6.7128906 a 0.22944153,0.22944153 0 0 0 0.002,0 l 2.041016,-0.3710937 0.328125,-0.6796875 a 0.22944153,0.22944153 0 0 1 0.0098,-0.015625 L 19.947266,5.0039062 19.574219,4.640625 18.369141,3.8378906 Z M 20.792969,4.2148438 20.539062,4.4726562 20.332031,4.8027344 19.765625,5.7617188 19.386719,6.546875 17.232422,6.9375 16.230469,7.1367188 15.591797,6.9101562 14.476562,6.5253906 12.90625,6.1640625 11.832031,5.9257812 11.242188,6.2089844 9.3085938,7.3964844 8.0546875,8.5195312 7.578125,9.0214844 7.328125,9.3007812 7,9.6738281 6.7128906,9.9511719 6.234375,10.615234 l -0.2226562,0.423828 -0.1777344,0.320313 -0.1035156,0.417969 1.5742187,1.21875 0.7050781,0.476562 0.09375,0.06641 0.044922,-0.236328 0.2246094,-0.146484 0.6445312,-0.382812 0.8242188,-0.566407 0.419922,-0.242187 1.550781,-0.773438 2.019531,-0.804687 0.517578,-0.214844 1.705079,-0.7324219 0.640624,-0.1992187 1.595704,-0.4882813 0.833984,-0.15625 0.759766,-0.1640625 1.261718,-0.1914062 1.421875,-0.080078 0.646485,0.025391 0.185547,0.017578 0.03125,-0.1074219 0.158203,-0.703125 0.382812,-1.5644531 0.06641,-0.2929688 C 23.699717,5.2416722 23.346093,4.9641571 22.976566,4.7089888 22.921566,4.6868628 22.78516,4.6328168 22.78516,4.6328168 L 22.242188,4.4472656 21.441406,4.2617188 Z M 6.9726562,6.5859375 c -0.9644154,1.0626502 -1.7525373,2.2942048 -2.3125,3.6503905 l 0.3007813,0.0078 0.8164063,-0.0625 0.4980468,-0.08008 0.2207032,-0.3066401 a 0.26737689,0.26737689 0 0 1 0.03125,-0.035156 L 6.8066406,9.4882812 7.1269531,9.1230469 a 0.26737689,0.26737689 0 0 0 0.00195,-0.00195 l 0.25,-0.2773438 a 0.26737689,0.26737689 0 0 1 0.00391,-0.00781 L 7.8613281,8.3339844 A 0.26737689,0.26737689 0 0 1 7.875,8.3203125 l 0.4101562,-0.3652344 -0.00781,-0.00586 -0.3164063,-0.3828126 -0.4785156,-0.5 L 7.0429688,6.640625 Z m 15.5957028,1.8417969 -1.392578,0.078125 -1.24414,0.1894531 -0.75,0.1621094 a 0.26737689,0.26737689 0 0 1 -0.0059,0 l -0.820312,0.1542969 -1.582031,0.484375 -0.626954,0.1933593 -1.691406,0.7285159 a 0.26737689,0.26737689 0 0 0 -0.002,0 l -0.226563,0.09375 0.46875,0.599609 0.369141,0.369141 0.433594,0.326172 0.416015,0.253906 0.296876,0.09375 0.513671,-0.01367 0.365235,-0.0293 0.568359,-0.06836 0.002,-0.01367 -0.109375,-0.109375 -0.292969,-0.240234 -0.185546,-0.207032 -0.314454,-0.333984 0.316407,0.136719 0.417969,0.230468 0.451171,0.138672 0.667969,0.09961 0.792969,0.04883 v -0.0293 L 19.28125,11.5 l -0.117188,-0.417969 0.08008,0.01758 0.126953,0.166016 0.347656,0.308594 0.427734,0.365234 0.498047,0.359375 0.306641,0.269531 0.322266,0.435547 0.21875,0.310547 0.240234,0.449219 0.195312,0.361328 0.08203,0.0957 0.02734,-0.04687 0.08789,-0.519531 0.06445,-0.0957 0.228516,0.28125 0.226562,0.509765 0.101563,0.644532 0.04687,0.445312 0.03711,0.748047 0.02148,0.802734 0.01563,0.664063 0.101562,-0.300781 0.117188,-0.433594 0.105468,-0.542969 0.119141,-0.476562 L 23.5625,15.314453 23.779297,15.117188 23.980469,15 l 0.148437,-0.002 0.257813,0.167969 0.132812,0.06641 0.107422,-0.216797 0.154297,-1.082031 0.06836,-1.03125 L 24.736328,11.75 24.507812,10.78125 24.232422,9.90625 23.548828,8.5078125 23.498047,8.4394531 A 0.26737689,0.26737689 0 0 1 23.375,8.46875 L 23.197266,8.453125 Z m -9.222656,2.4414066 -1.423828,0.566406 -1.533203,0.763672 -0.404297,0.234375 -0.8164062,0.558594 a 0.26737689,0.26737689 0 0 1 -0.013672,0.0098 l -0.640625,0.380859 -0.125,0.08203 -0.023437,0.125 a 0.26737689,0.26737689 0 0 1 -0.025391,0.04101 l -0.2148438,0.0918 0.00195,0.07617 0.021484,0.947266 0.013672,0.669922 0.027344,0.271484 0.00586,0.09375 0.066406,0.595703 -0.064453,0.113281 -0.039063,0.06445 -0.2441406,0.115234 0.5664063,0.255859 0.3613281,0.535157 0.1113281,0.404296 0.1367188,0.728516 0.083984,0.742188 0.00586,0.53125 0.054687,0.529296 0.070312,0.388672 0.1503906,0.390625 0.3105469,0.609375 L 10.08398,22.058619 9.9238243,21.589869 9.80859,21.011744 9.794918,20.468775 9.86523,19.638697 9.884761,18.982447 9.849605,18.429713 9.785152,17.871119 9.703121,17.097681 9.697261,16.574244 9.8613235,17.044947 a 0.16666807,0.16666807 0 0 1 0.00977,0.03711 l 0.080078,0.769531 0.064454,0.560547 a 0.16666807,0.16666807 0 0 1 0,0.002 0.16666807,0.16666807 0 0 1 0,0.002 0.16666807,0.16666807 0 0 1 0,0.002 0.16666807,0.16666807 0 0 1 0,0.002 l 0.03516,0.552734 a 0.16666807,0.16666807 0 0 0 0,0.0039 0.16666807,0.16666807 0 0 0 0,0.002 0.16666807,0.16666807 0 0 0 0,0.002 0.16666807,0.16666807 0 0 0 0,0.002 0.16666807,0.16666807 0 0 0 0,0.002 0.16666807,0.16666807 0 0 0 0,0.002 0.16666807,0.16666807 0 0 0 0,0.0039 l -0.01758,0.654297 a 0.16666807,0.16666807 0 0 1 0,0.002 0.16666807,0.16666807 0 0 1 0,0.002 0.16666807,0.16666807 0 0 1 0,0.002 0.16666807,0.16666807 0 0 1 0,0.002 l -0.072266,0.820312 0.013672,0.521485 0.1113285,0.554687 0.154296,0.457031 A 0.16666807,0.16666807 0 0 1 9.9726562,22.185547 L 9.65625,21.908203 a 0.16666807,0.16666807 0 0 1 -0.041016,-0.04687 l -0.3105465,-0.60938 a 0.16666807,0.16666807 0 0 1 -0.00781,-0.01563 L 9.1464844,20.84375 A 0.16666807,0.16666807 0 0 1 9.140625,20.8125 L 9.070313,20.427734 a 0.16666807,0.16666807 0 0 1 -0.00195,-0.01172 L 9.054691,20.28906 8.7871129,20.126951 8.4355504,19.775389 l -0.25,-0.31836 -0.265625,-0.404297 -0.2734375,-0.533203 -0.048828,0.05078 -0.3632812,0.681641 -0.5683594,1.513672 -0.1523437,1.050781 0.070312,0.919922 0.2109375,0.732422 c 0.5497706,0.632329 1.1606365,1.208362 1.8242187,1.716797 l 0.7285156,0.0957 a 0.22961229,0.22961229 0 0 1 0.023438,0.0059 l 0.6132812,0.144532 a 0.22961229,0.22961229 0 0 1 0.0625,0.02539 l 0.623047,0.363281 a 0.22961229,0.22961229 0 0 1 0.01953,0.01172 l 0.04883,0.03516 0.01953,-0.05664 0.06445,-0.04102 0.498046,0.214844 0.353516,0.1875 0.605469,0.167969 0.230469,-0.05859 a 0.22961229,0.22961229 0 0 1 0.0332,-0.185547 l -0.230469,-0.443359 -0.242188,-0.94336 -0.482421,-2.539062 -0.0625,-0.794922 0.01953,-1.371094 -0.02344,-1.070312 -0.0039,-0.207032 -0.199219,-0.09375 a 0.15265455,0.15265455 0 0 1 -0.07813,-0.08594 l -0.15039,-0.40625 a 0.15265455,0.15265455 0 0 1 -0.0059,-0.08594 l 0.142578,-0.628907 a 0.15265455,0.15265455 0 0 1 0.0059,-0.02148 l 0.201172,-0.513672 a 0.15265455,0.15265455 0 0 1 0.02734,-0.04687 l 0.232421,-0.263672 0.0059,-0.04102 0.152343,-1.042968 0.121094,-0.314453 0.177735,-0.63086 0.242187,-0.560547 0.167969,-0.498046 0.04687,-0.121094 -0.06836,-0.01758 -0.4375,-0.01758 0.494141,-0.123047 0.08399,-0.02344 0.05469,-0.140625 0.378906,-1.195312 0.148438,-0.679688 z m -1.066406,15.470703 -1.265625,0.01172 -0.128906,0.207032 c 0.668389,0.312532 1.367277,0.569641 2.09375,0.757812 l -0.441407,-1.013672 z m 7.603515,-14.015625 -0.457031,0.01367 -0.666015,0.07617 -0.542969,0.220704 -0.443359,0.324218 -0.132813,0.269532 -0.06055,0.283203 0.0078,0.251953 0.289062,0.121094 0.371094,-0.107422 0.4375,-0.408203 0.443359,-0.427735 0.34375,-0.251953 0.220703,-0.164062 0.351563,-0.101563 0.166016,-0.04297 z m -6.072265,0.746093 -0.576172,0.01758 -0.261719,0.06445 -0.669922,0.152344 0.285157,0.0293 0.25,0.05078 0.425781,0.193359 0.708984,0.517578 0.519532,0.117188 0.302734,-0.03516 0.232422,-0.205078 0.0293,-0.220703 -0.214844,-0.302734 -0.460938,-0.273438 z m 6.292969,1.322266 -0.396485,0.08789 -0.394531,0.3125 -0.550781,0.767578 -0.150391,0.412109 -0.02344,0.484375 0.111328,0.279297 0.193359,0.07031 -0.05859,-0.330079 0.07617,-0.375 0.148438,-0.367187 0.207031,-0.15625 0.333984,-0.148437 0.25,-0.06055 0.414063,0.08594 0.332031,0.177734 0.175781,0.205079 0.142578,0.208984 0.150391,0.429687 0.04492,0.244141 0.0098,0.09766 1.015625,0.128907 0.171875,-0.117188 v -0.166016 l 0.01172,-0.417968 -0.08984,-0.417969 -0.189454,-0.412109 -0.228515,-0.261719 -0.605469,-0.394531 -0.568359,-0.267578 z m -6.923828,1.078125 -0.306641,0.142578 -0.427735,0.347657 -0.86914,0.984374 -0.201172,0.513672 -0.142578,0.628907 0.15039,0.40625 0.228516,0.107421 0.199219,0.02148 0.392578,-0.222656 0.248047,-0.09961 -0.0059,-0.01758 -0.07031,-0.472656 0.01953,-0.431641 0.101563,-0.291015 0.201172,-0.378907 0.214843,-0.175781 0.365235,-0.208984 0.451172,-0.111328 0.433593,0.08008 0.34961,0.214843 0.224609,0.285157 0.144531,0.304687 0.05274,0.310547 c 0,0 0.01747,0.106396 0.02344,0.265625 l 0.126953,-0.03516 0.150391,-0.378906 v -0.277344 l -0.298828,-0.642578 -0.314453,-0.328125 -0.50586,-0.306641 z m 6.671874,0.623047 -0.154296,0.05469 -0.113282,0.144531 -0.08789,0.173828 -0.0098,0.21875 0.01367,0.177734 h 0.02344 l 0.820312,-0.103515 -0.03516,-0.179688 -0.06641,-0.228516 -0.09766,-0.177734 -0.134765,-0.07422 z m -6.123046,0.925781 -0.177735,0.09375 -0.160156,0.183594 -0.07617,0.25 0.01172,0.291016 0.06836,0.183593 0.128907,-0.0332 0.634765,-0.08594 0.03711,-0.0098 0.0059,-0.02734 -0.0039,-0.261718 -0.04883,-0.25 -0.15625,-0.240235 z m 9.71875,1.949219 -0.324219,0.113281 -0.0039,0.103516 a 0.21536625,0.21536625 0 0 1 -0.0098,0.05078 l -0.330078,1.115234 a 0.21536625,0.21536625 0 0 1 -0.02539,0.05664 l -0.455078,0.701172 -0.449219,0.730469 a 0.21536625,0.21536625 0 0 1 -0.04102,0.04883 l -0.947266,0.828125 a 0.21536625,0.21536625 0 0 1 -0.01758,0.01367 l -0.988281,0.705078 a 0.21536625,0.21536625 0 0 1 -0.02148,0.01367 L 18.84958,23.99023 a 0.25578838,0.25578838 0 0 1 0.03516,0.09961 l 0.0039,0.121094 a 0.25578838,0.25578838 0 0 1 0.002,0.0098 l 0.002,1.128906 v 0.002 c 1.5e-5,0.0017 -8.6e-4,0.167016 0.002,0.337891 0.0014,0.08587 0.0059,0.171664 0.0078,0.238281 9.59e-4,0.03331 9.53e-4,0.0611 0.002,0.08008 9.5e-4,0.01896 0.0131,0.06628 -0.0039,-0.0039 0.01504,0.06202 0.01249,0.06974 0.01563,0.105469 0.0031,0.03573 0.0051,0.07575 0.0078,0.115234 0.0048,0.07046 0.0071,0.123347 0.0078,0.136719 l 0.08398,0.515625 0.0918,0.355469 0.04102,0.07422 c 2.446543,-0.641985 4.594574,-2.02836 6.205078,-3.908203 l -0.550782,-1.333985 -0.734375,-1.185547 -0.445312,-0.71875 -0.208985,-0.796875 z m -3.087891,1.611328 c -0.01015,-9e-4 -0.02263,3.06e-4 -0.03711,0.0039 -0.03854,0.0095 -0.103374,0.03651 -0.189454,0.07813 -0.111182,0.05374 -0.26809,0.139872 -0.443359,0.238282 -0.233683,0.130965 -0.497351,0.284133 -0.810547,0.474609 -0.297832,0.05706 -0.634897,0.130597 -0.970703,0.216797 l 0.138672,-0.04102 c -0.317712,0.0036 -0.637998,0.01539 -0.933594,0.03711 -0.0937,-0.01784 -0.183072,-0.03046 -0.263672,-0.03516 -0.093,-0.0054 -0.192867,-0.0016 -0.298828,0.0078 l 0.111328,0.01367 c -0.132958,-0.01534 -0.272845,-0.02716 -0.414062,-0.03516 h -0.002 c -0.1419,-0.008 -0.285163,-0.01207 -0.427735,-0.01367 l 0.134766,0.04687 c -0.387174,-0.12207 -0.770331,-0.2295 -1.101563,-0.3125 l 0.04492,0.02539 c -0.54715,-0.260644 -0.99276,-0.455489 -1.224609,-0.537109 -0.09198,-0.03237 -0.165269,-0.04523 -0.224609,-0.05273 -0.0018,-3e-4 -0.0041,-0.0017 -0.0059,-0.002 h -0.002 c -0.0601,-0.0076 -0.102382,-0.008 -0.132812,-0.01367 0.01707,0.02582 0.03428,0.06501 0.06445,0.117187 v 0.002 c 0.03013,0.05199 0.07373,0.115873 0.140625,0.189453 0.165347,0.181868 0.517819,0.519129 0.970703,0.921875 a 0.03596751,0.00301066 34.509115 0 0 0.02539,0.01758 0.03596751,0.00301066 34.509115 0 0 0.01758,0.0098 c 0.269618,0.208391 0.591356,0.440012 0.925781,0.667969 a 0.1138329,0.00663665 22.224131 0 0 0.134766,0.04883 c 0.130687,0.05579 0.262129,0.10728 0.394531,0.15625 0.132897,0.04925 0.263811,0.09492 0.392578,0.134765 a 0.09032588,0.00369182 9.6005072 0 0 0.121094,0.01758 0.09032588,0.00369182 9.6005072 0 1 0.002,0 0.09032588,0.00369182 9.6005072 0 1 0.002,0 0.09032588,0.00369182 9.6005072 0 1 0,-0.002 c 0.100256,0.01783 0.197679,0.0302 0.287109,0.0332 0.08378,0.0028 0.176381,-0.0018 0.275391,-0.01172 a 0.00408738,0.12390147 84.679788 0 0 -0.002,0.002 0.00408738,0.12390147 84.679788 0 0 0.02148,0 0.00408738,0.12390147 84.679788 0 0 0.126953,-0.0098 c 0.323554,-0.08093 0.678801,-0.187175 1.027344,-0.302734 a 0.00334202,0.13198529 71.790182 0 0 0.04492,-0.01172 0.00334202,0.13198529 71.790182 0 0 0.0918,-0.0293 c 0.288605,-0.192101 0.568999,-0.392831 0.810547,-0.576171 a 0.00535367,0.07348608 54.434379 0 0 0.01172,-0.0039 0.00535367,0.07348608 54.434379 0 0 0.02734,-0.01563 0.00535367,0.07348608 54.434379 0 0 0.0039,-0.0039 0.00535367,0.07348608 54.434379 0 0 0.03906,-0.02734 c 0.310346,-0.322574 0.57892,-0.612314 0.779297,-0.839844 0.200376,-0.22753 0.33256,-0.392846 0.36914,-0.466796 0.01322,-0.02673 0.01452,-0.04575 0.01172,-0.06055 -0.0029,-0.01479 -0.0098,-0.0254 -0.0098,-0.0332 -0.01151,-0.0024 -0.02426,-0.02074 -0.05469,-0.02344 z m -8.498047,1.796875 0.433594,2.283203 0.234375,0.908203 0.191406,0.371094 0.833985,-0.382812 0.105468,-0.166016 0.04492,-0.423828 0.01367,-1.078125 a 0.25578838,0.25578838 0 0 1 0.04687,-0.134766 l -0.626953,-0.269531 a 0.21536625,0.21536625 0 0 1 -0.04102,-0.02344 l -0.929687,-0.681641 a 0.21536625,0.21536625 0 0 1 -0.04492,-0.04687 z m 2.115234,1.513672 -0.01367,1.09375 -0.05664,0.492187 -0.173828,0.28125 -1.003906,0.460938 a 0.20977909,0.20977909 0 0 1 0.002,0.002 l 0.501904,1.15425 c 0.903558,0.213445 1.844625,0.330079 2.8125,0.330078 0.97906,0 1.930645,-0.11962 2.84375,-0.33789 l -0.02148,-0.03711 -0.101563,-0.402344 -0.08789,-0.537109 c 0,0 -0.01553,-0.287484 -0.02539,-0.328125 -0.0099,-0.04064 -0.01563,-0.710937 -0.01563,-0.710938 l -0.002,-1.130859 -0.0059,-0.123047 -1.230468,0.34375 a 0.25351093,0.25351093 0 0 1 -0.07227,0.0078 l -1.712891,-0.03711 a 0.25351093,0.25351093 0 0 1 -0.07422,-0.01367 L 14,23.896484 a 0.25351093,0.25351093 0 0 1 -0.02344,-0.0059 z m -4.9648432,1.580078 c 0.5327061,0.375928 1.0923582,0.711955 1.6816402,1 l 0.140625,-0.228515 a 0.20977909,0.20977909 0 0 1 0.01172,-0.01172 L 10.554688,26.019531 9.9296875,25.65625 9.3183594,25.511719 Z m 2.0664062,0.662109 a 0.25578838,0.25578838 0 0 1 0.0039,0.0098 h 0.01758 z" />
  </g>
  <metadata
     id="metadata2816">
    <rdf:RDF>
      <cc:Work
         rdf:about="">
        <dc:title>GOV.UK</dc:title>
      </cc:Work>
    </rdf:RDF>
  </metadata>
  <g
     id="g3435"
     transform="translate(0,-0.18790389)"
     clip-path="url(#clipPath17416)">
    <rect
       style="fill:#55cdfc;fill-opacity:1;stroke-width:4.46518;stroke-linecap:round;stroke-linejoin:round;paint-order:markers stroke fill"
       id="rect2840"
       width="25"
       height="25"
       x="1.8453269"
       y="2.0990369" />
    <rect
       style="fill:#f7a8b8;fill-opacity:1;stroke-width:3.45871;stroke-linecap:round;stroke-linejoin:round;paint-order:markers stroke fill"
       id="rect3078"
       width="25"
       height="15"
       x="1.8453269"
       y="7.099" />
    <rect
       style="fill:#ffffff;fill-opacity:1;stroke-width:1.99689;stroke-linecap:round;stroke-linejoin:round;paint-order:markers stroke fill"
       id="rect3098"
       width="25"
       height="5"
       x="1.8453269"
       y="12.099" />
  </g>
</svg>
