<?xml version="1.0" encoding="UTF-8" standalone="no"?>
<!-- Created with Inkscape (http://www.inkscape.org/) -->

<svg
   width="7.503418mm"
   height="7.6258907mm"
   viewBox="0 0 7.503418 7.6258907"
   version="1.1"
   id="svg1708"
   inkscape:version="1.1.2 (0a00cf5339, 2022-02-04)"
   sodipodi:docname="logo.svg"
   xmlns:inkscape="http://www.inkscape.org/namespaces/inkscape"
   xmlns:sodipodi="http://sodipodi.sourceforge.net/DTD/sodipodi-0.dtd"
   xmlns="http://www.w3.org/2000/svg"
   xmlns:svg="http://www.w3.org/2000/svg">
  <sodipodi:namedview
     id="namedview1710"
     pagecolor="#505050"
     bordercolor="#eeeeee"
     borderopacity="1"
     inkscape:pageshadow="0"
     inkscape:pageopacity="0"
     inkscape:pagecheckerboard="0"
     inkscape:document-units="mm"
     showgrid="false"
     inkscape:zoom="8.9471591"
     inkscape:cx="23.191719"
     inkscape:cy="37.330285"
     inkscape:window-width="1904"
     inkscape:window-height="1115"
     inkscape:window-x="8"
     inkscape:window-y="40"
     inkscape:window-maximized="0"
     inkscape:current-layer="layer1" />
  <defs
     id="defs1705" />
  <g
     inkscape:label="Layer 1"
     inkscape:groupmode="layer"
     id="layer1"
     transform="translate(-83.554331,-22.897122)">
    <g
       id="g11"
       inkscape:label="logo-design-2"
       style="fill:#6e777a;fill-opacity:1"
       transform="matrix(0.26458333,0,0,0.26458333,83.060821,22.707986)">
      <path
         id="path14"
         style="fill:#6e777a;fill-opacity:1;stroke:none;stroke-width:1.023;stroke-dasharray:none;stroke-opacity:1"
         d="M 16.044922,0.71484375 C 8.2151519,0.71484352 1.8652344,7.1795308 1.8652344,15.126953 c 0,7.947423 6.3499165,14.410157 14.1796876,14.410156 7.82977,0 14.179688,-6.462733 14.179687,-14.410156 0,-7.947422 -6.349917,-14.41210925 -14.179687,-14.41210925 z m 0,1.08593745 c 7.233851,0 13.095703,5.954995 13.095703,13.3261718 0,7.371178 -5.861851,13.326172 -13.095703,13.326172 -7.2338531,0 -13.0957042,-5.954994 -13.0957032,-13.326172 0,-7.3711769 5.8618511,-13.3261719 13.0957032,-13.3261718 z m 1.720703,1.8691407 -1.632813,0.15625 -1.49414,0.3632812 L 13.386719,4.6289062 11.6875,5.34375 10.544922,5.8535156 9.6894531,6.2382812 9.6640625,6.2871094 8.7675781,6.8105469 8.4277344,7.7109375 8.5058594,7.8085938 9.15625,7.2265625 a 0.22944153,0.22944153 0 0 1 0.033203,-0.025391 l 1.931641,-1.1875 a 0.22944153,0.22944153 0 0 1 0.02148,-0.011719 L 11.730469,5.71875 a 0.22944153,0.22944153 0 0 1 0.15039,-0.017578 l 1.076172,0.2382812 a 0.22944153,0.22944153 0 0 0 0.002,0 l 1.566407,0.3613281 a 0.22944153,0.22944153 0 0 1 0.02344,0.00586 l 1.117188,0.3867188 a 0.22944153,0.22944153 0 0 0 0.002,0 L 16.248047,6.8984375 17.1875,6.7128906 a 0.22944153,0.22944153 0 0 0 0.002,0 l 2.041016,-0.3710937 0.328125,-0.6796875 a 0.22944153,0.22944153 0 0 1 0.0098,-0.015625 L 19.947266,5.0039062 19.574219,4.640625 18.369141,3.8378906 Z M 20.792969,4.2148438 20.539062,4.4726562 20.332031,4.8027344 19.765625,5.7617188 19.386719,6.546875 17.232422,6.9375 16.230469,7.1367188 15.591797,6.9101562 14.476562,6.5253906 12.90625,6.1640625 11.832031,5.9257812 11.242188,6.2089844 9.3085938,7.3964844 8.0546875,8.5195312 7.578125,9.0214844 7.328125,9.3007812 7,9.6738281 6.7128906,9.9511719 6.234375,10.615234 l -0.2226562,0.423828 -0.1777344,0.320313 -0.1035156,0.417969 1.5742187,1.21875 0.7050781,0.476562 0.09375,0.06641 0.044922,-0.236328 0.2246094,-0.146484 0.6445312,-0.382812 0.8242188,-0.566407 0.419922,-0.242187 1.550781,-0.773438 2.019531,-0.804687 0.517578,-0.214844 1.705079,-0.7324219 0.640624,-0.1992187 1.595704,-0.4882813 0.833984,-0.15625 0.759766,-0.1640625 1.261718,-0.1914062 1.421875,-0.080078 0.646485,0.025391 0.185547,0.017578 0.03125,-0.1074219 0.158203,-0.703125 0.382812,-1.5644531 0.06641,-0.2929688 C 23.699717,5.2416722 23.346093,4.9641571 22.976566,4.7089888 22.921566,4.6868628 22.78516,4.6328168 22.78516,4.6328168 L 22.242188,4.4472656 21.441406,4.2617188 Z M 6.9726562,6.5859375 c -0.9644154,1.0626502 -1.7525373,2.2942048 -2.3125,3.6503905 l 0.3007813,0.0078 0.8164063,-0.0625 0.4980468,-0.08008 0.2207032,-0.3066401 a 0.26737689,0.26737689 0 0 1 0.03125,-0.035156 L 6.8066406,9.4882812 7.1269531,9.1230469 a 0.26737689,0.26737689 0 0 0 0.00195,-0.00195 l 0.25,-0.2773438 a 0.26737689,0.26737689 0 0 1 0.00391,-0.00781 L 7.8613281,8.3339844 A 0.26737689,0.26737689 0 0 1 7.875,8.3203125 l 0.4101562,-0.3652344 -0.00781,-0.00586 -0.3164063,-0.3828126 -0.4785156,-0.5 L 7.0429688,6.640625 Z m 15.5957028,1.8417969 -1.392578,0.078125 -1.24414,0.1894531 -0.75,0.1621094 a 0.26737689,0.26737689 0 0 1 -0.0059,0 l -0.820312,0.1542969 -1.582031,0.484375 -0.626954,0.1933593 -1.691406,0.7285159 a 0.26737689,0.26737689 0 0 0 -0.002,0 l -0.226563,0.09375 0.46875,0.599609 0.369141,0.369141 0.433594,0.326172 0.416015,0.253906 0.296876,0.09375 0.513671,-0.01367 0.365235,-0.0293 0.568359,-0.06836 0.002,-0.01367 -0.109375,-0.109375 -0.292969,-0.240234 -0.185546,-0.207032 -0.314454,-0.333984 0.316407,0.136719 0.417969,0.230468 0.451171,0.138672 0.667969,0.09961 0.792969,0.04883 v -0.0293 L 19.28125,11.5 l -0.117188,-0.417969 0.08008,0.01758 0.126953,0.166016 0.347656,0.308594 0.427734,0.365234 0.498047,0.359375 0.306641,0.269531 0.322266,0.435547 0.21875,0.310547 0.240234,0.449219 0.195312,0.361328 0.08203,0.0957 0.02734,-0.04687 0.08789,-0.519531 0.06445,-0.0957 0.228516,0.28125 0.226562,0.509765 0.101563,0.644532 0.04687,0.445312 0.03711,0.748047 0.02148,0.802734 0.01563,0.664063 0.101562,-0.300781 0.117188,-0.433594 0.105468,-0.542969 0.119141,-0.476562 L 23.5625,15.314453 23.779297,15.117188 23.980469,15 l 0.148437,-0.002 0.257813,0.167969 0.132812,0.06641 0.107422,-0.216797 0.154297,-1.082031 0.06836,-1.03125 L 24.736328,11.75 24.507812,10.78125 24.232422,9.90625 23.548828,8.5078125 23.498047,8.4394531 A 0.26737689,0.26737689 0 0 1 23.375,8.46875 L 23.197266,8.453125 Z m -9.222656,2.4414066 -1.423828,0.566406 -1.533203,0.763672 -0.404297,0.234375 -0.8164062,0.558594 a 0.26737689,0.26737689 0 0 1 -0.013672,0.0098 l -0.640625,0.380859 -0.125,0.08203 -0.023437,0.125 a 0.26737689,0.26737689 0 0 1 -0.025391,0.04101 l -0.2148438,0.0918 0.00195,0.07617 0.021484,0.947266 0.013672,0.669922 0.027344,0.271484 0.00586,0.09375 0.066406,0.595703 -0.064453,0.113281 -0.039063,0.06445 -0.2441406,0.115234 0.5664063,0.255859 0.3613281,0.535157 0.1113281,0.404296 0.1367188,0.728516 0.083984,0.742188 0.00586,0.53125 0.054687,0.529296 0.070312,0.388672 0.1503906,0.390625 0.3105469,0.609375 L 10.08398,22.058619 9.9238243,21.589869 9.80859,21.011744 9.794918,20.468775 9.86523,19.638697 9.884761,18.982447 9.849605,18.429713 9.785152,17.871119 9.703121,17.097681 9.697261,16.574244 9.8613235,17.044947 a 0.16666807,0.16666807 0 0 1 0.00977,0.03711 l 0.080078,0.769531 0.064454,0.560547 a 0.16666807,0.16666807 0 0 1 0,0.002 0.16666807,0.16666807 0 0 1 0,0.002 0.16666807,0.16666807 0 0 1 0,0.002 0.16666807,0.16666807 0 0 1 0,0.002 l 0.03516,0.552734 a 0.16666807,0.16666807 0 0 0 0,0.0039 0.16666807,0.16666807 0 0 0 0,0.002 0.16666807,0.16666807 0 0 0 0,0.002 0.16666807,0.16666807 0 0 0 0,0.002 0.16666807,0.16666807 0 0 0 0,0.002 0.16666807,0.16666807 0 0 0 0,0.002 0.16666807,0.16666807 0 0 0 0,0.0039 l -0.01758,0.654297 a 0.16666807,0.16666807 0 0 1 0,0.002 0.16666807,0.16666807 0 0 1 0,0.002 0.16666807,0.16666807 0 0 1 0,0.002 0.16666807,0.16666807 0 0 1 0,0.002 l -0.072266,0.820312 0.013672,0.521485 0.1113285,0.554687 0.154296,0.457031 A 0.16666807,0.16666807 0 0 1 9.9726562,22.185547 L 9.65625,21.908203 a 0.16666807,0.16666807 0 0 1 -0.041016,-0.04687 l -0.3105465,-0.60938 a 0.16666807,0.16666807 0 0 1 -0.00781,-0.01563 L 9.1464844,20.84375 A 0.16666807,0.16666807 0 0 1 9.140625,20.8125 L 9.070313,20.427734 a 0.16666807,0.16666807 0 0 1 -0.00195,-0.01172 L 9.054691,20.28906 8.7871129,20.126951 8.4355504,19.775389 l -0.25,-0.31836 -0.265625,-0.404297 -0.2734375,-0.533203 -0.048828,0.05078 -0.3632812,0.681641 -0.5683594,1.513672 -0.1523437,1.050781 0.070312,0.919922 0.2109375,0.732422 c 0.5497706,0.632329 1.1606365,1.208362 1.8242187,1.716797 l 0.7285156,0.0957 a 0.22961229,0.22961229 0 0 1 0.023438,0.0059 l 0.6132812,0.144532 a 0.22961229,0.22961229 0 0 1 0.0625,0.02539 l 0.623047,0.363281 a 0.22961229,0.22961229 0 0 1 0.01953,0.01172 l 0.04883,0.03516 0.01953,-0.05664 0.06445,-0.04102 0.498046,0.214844 0.353516,0.1875 0.605469,0.167969 0.230469,-0.05859 a 0.22961229,0.22961229 0 0 1 0.0332,-0.185547 l -0.230469,-0.443359 -0.242188,-0.94336 -0.482421,-2.539062 -0.0625,-0.794922 0.01953,-1.371094 -0.02344,-1.070312 -0.0039,-0.207032 -0.199219,-0.09375 a 0.15265455,0.15265455 0 0 1 -0.07813,-0.08594 l -0.15039,-0.40625 a 0.15265455,0.15265455 0 0 1 -0.0059,-0.08594 l 0.142578,-0.628907 a 0.15265455,0.15265455 0 0 1 0.0059,-0.02148 l 0.201172,-0.513672 a 0.15265455,0.15265455 0 0 1 0.02734,-0.04687 l 0.232421,-0.263672 0.0059,-0.04102 0.152343,-1.042968 0.121094,-0.314453 0.177735,-0.63086 0.242187,-0.560547 0.167969,-0.498046 0.04687,-0.121094 -0.06836,-0.01758 -0.4375,-0.01758 0.494141,-0.123047 0.08399,-0.02344 0.05469,-0.140625 0.378906,-1.195312 0.148438,-0.679688 z m -1.066406,15.470703 -1.265625,0.01172 -0.128906,0.207032 c 0.668389,0.312532 1.367277,0.569641 2.09375,0.757812 l -0.441407,-1.013672 z m 7.603515,-14.015625 -0.457031,0.01367 -0.666015,0.07617 -0.542969,0.220704 -0.443359,0.324218 -0.132813,0.269532 -0.06055,0.283203 0.0078,0.251953 0.289062,0.121094 0.371094,-0.107422 0.4375,-0.408203 0.443359,-0.427735 0.34375,-0.251953 0.220703,-0.164062 0.351563,-0.101563 0.166016,-0.04297 z m -6.072265,0.746093 -0.576172,0.01758 -0.261719,0.06445 -0.669922,0.152344 0.285157,0.0293 0.25,0.05078 0.425781,0.193359 0.708984,0.517578 0.519532,0.117188 0.302734,-0.03516 0.232422,-0.205078 0.0293,-0.220703 -0.214844,-0.302734 -0.460938,-0.273438 z m 6.292969,1.322266 -0.396485,0.08789 -0.394531,0.3125 -0.550781,0.767578 -0.150391,0.412109 -0.02344,0.484375 0.111328,0.279297 0.193359,0.07031 -0.05859,-0.330079 0.07617,-0.375 0.148438,-0.367187 0.207031,-0.15625 0.333984,-0.148437 0.25,-0.06055 0.414063,0.08594 0.332031,0.177734 0.175781,0.205079 0.142578,0.208984 0.150391,0.429687 0.04492,0.244141 0.0098,0.09766 1.015625,0.128907 0.171875,-0.117188 v -0.166016 l 0.01172,-0.417968 -0.08984,-0.417969 -0.189454,-0.412109 -0.228515,-0.261719 -0.605469,-0.394531 -0.568359,-0.267578 z m -6.923828,1.078125 -0.306641,0.142578 -0.427735,0.347657 -0.86914,0.984374 -0.201172,0.513672 -0.142578,0.628907 0.15039,0.40625 0.228516,0.107421 0.199219,0.02148 0.392578,-0.222656 0.248047,-0.09961 -0.0059,-0.01758 -0.07031,-0.472656 0.01953,-0.431641 0.101563,-0.291015 0.201172,-0.378907 0.214843,-0.175781 0.365235,-0.208984 0.451172,-0.111328 0.433593,0.08008 0.34961,0.214843 0.224609,0.285157 0.144531,0.304687 0.05274,0.310547 c 0,0 0.01747,0.106396 0.02344,0.265625 l 0.126953,-0.03516 0.150391,-0.378906 v -0.277344 l -0.298828,-0.642578 -0.314453,-0.328125 -0.50586,-0.306641 z m 6.671874,0.623047 -0.154296,0.05469 -0.113282,0.144531 -0.08789,0.173828 -0.0098,0.21875 0.01367,0.177734 h 0.02344 l 0.820312,-0.103515 -0.03516,-0.179688 -0.06641,-0.228516 -0.09766,-0.177734 -0.134765,-0.07422 z m -6.123046,0.925781 -0.177735,0.09375 -0.160156,0.183594 -0.07617,0.25 0.01172,0.291016 0.06836,0.183593 0.128907,-0.0332 0.634765,-0.08594 0.03711,-0.0098 0.0059,-0.02734 -0.0039,-0.261718 -0.04883,-0.25 -0.15625,-0.240235 z m 9.71875,1.949219 -0.324219,0.113281 -0.0039,0.103516 a 0.21536625,0.21536625 0 0 1 -0.0098,0.05078 l -0.330078,1.115234 a 0.21536625,0.21536625 0 0 1 -0.02539,0.05664 l -0.455078,0.701172 -0.449219,0.730469 a 0.21536625,0.21536625 0 0 1 -0.04102,0.04883 l -0.947266,0.828125 a 0.21536625,0.21536625 0 0 1 -0.01758,0.01367 l -0.988281,0.705078 a 0.21536625,0.21536625 0 0 1 -0.02148,0.01367 L 18.84958,23.99023 a 0.25578838,0.25578838 0 0 1 0.03516,0.09961 l 0.0039,0.121094 a 0.25578838,0.25578838 0 0 1 0.002,0.0098 l 0.002,1.128906 v 0.002 c 1.5e-5,0.0017 -8.6e-4,0.167016 0.002,0.337891 0.0014,0.08587 0.0059,0.171664 0.0078,0.238281 9.59e-4,0.03331 9.53e-4,0.0611 0.002,0.08008 9.5e-4,0.01896 0.0131,0.06628 -0.0039,-0.0039 0.01504,0.06202 0.01249,0.06974 0.01563,0.105469 0.0031,0.03573 0.0051,0.07575 0.0078,0.115234 0.0048,0.07046 0.0071,0.123347 0.0078,0.136719 l 0.08398,0.515625 0.0918,0.355469 0.04102,0.07422 c 2.446543,-0.641985 4.594574,-2.02836 6.205078,-3.908203 l -0.550782,-1.333985 -0.734375,-1.185547 -0.445312,-0.71875 -0.208985,-0.796875 z m -3.087891,1.611328 c -0.01015,-9e-4 -0.02263,3.06e-4 -0.03711,0.0039 -0.03854,0.0095 -0.103374,0.03651 -0.189454,0.07813 -0.111182,0.05374 -0.26809,0.139872 -0.443359,0.238282 -0.233683,0.130965 -0.497351,0.284133 -0.810547,0.474609 -0.297832,0.05706 -0.634897,0.130597 -0.970703,0.216797 l 0.138672,-0.04102 c -0.317712,0.0036 -0.637998,0.01539 -0.933594,0.03711 -0.0937,-0.01784 -0.183072,-0.03046 -0.263672,-0.03516 -0.093,-0.0054 -0.192867,-0.0016 -0.298828,0.0078 l 0.111328,0.01367 c -0.132958,-0.01534 -0.272845,-0.02716 -0.414062,-0.03516 h -0.002 c -0.1419,-0.008 -0.285163,-0.01207 -0.427735,-0.01367 l 0.134766,0.04687 c -0.387174,-0.12207 -0.770331,-0.2295 -1.101563,-0.3125 l 0.04492,0.02539 c -0.54715,-0.260644 -0.99276,-0.455489 -1.224609,-0.537109 -0.09198,-0.03237 -0.165269,-0.04523 -0.224609,-0.05273 -0.0018,-3e-4 -0.0041,-0.0017 -0.0059,-0.002 h -0.002 c -0.0601,-0.0076 -0.102382,-0.008 -0.132812,-0.01367 0.01707,0.02582 0.03428,0.06501 0.06445,0.117187 v 0.002 c 0.03013,0.05199 0.07373,0.115873 0.140625,0.189453 0.165347,0.181868 0.517819,0.519129 0.970703,0.921875 a 0.03596751,0.00301066 34.509115 0 0 0.02539,0.01758 0.03596751,0.00301066 34.509115 0 0 0.01758,0.0098 c 0.269618,0.208391 0.591356,0.440012 0.925781,0.667969 a 0.1138329,0.00663665 22.224131 0 0 0.134766,0.04883 c 0.130687,0.05579 0.262129,0.10728 0.394531,0.15625 0.132897,0.04925 0.263811,0.09492 0.392578,0.134765 a 0.09032588,0.00369182 9.6005072 0 0 0.121094,0.01758 0.09032588,0.00369182 9.6005072 0 1 0.002,0 0.09032588,0.00369182 9.6005072 0 1 0.002,0 0.09032588,0.00369182 9.6005072 0 1 0,-0.002 c 0.100256,0.01783 0.197679,0.0302 0.287109,0.0332 0.08378,0.0028 0.176381,-0.0018 0.275391,-0.01172 a 0.00408738,0.12390147 84.679788 0 0 -0.002,0.002 0.00408738,0.12390147 84.679788 0 0 0.02148,0 0.00408738,0.12390147 84.679788 0 0 0.126953,-0.0098 c 0.323554,-0.08093 0.678801,-0.187175 1.027344,-0.302734 a 0.00334202,0.13198529 71.790182 0 0 0.04492,-0.01172 0.00334202,0.13198529 71.790182 0 0 0.0918,-0.0293 c 0.288605,-0.192101 0.568999,-0.392831 0.810547,-0.576171 a 0.00535367,0.07348608 54.434379 0 0 0.01172,-0.0039 0.00535367,0.07348608 54.434379 0 0 0.02734,-0.01563 0.00535367,0.07348608 54.434379 0 0 0.0039,-0.0039 0.00535367,0.07348608 54.434379 0 0 0.03906,-0.02734 c 0.310346,-0.322574 0.57892,-0.612314 0.779297,-0.839844 0.200376,-0.22753 0.33256,-0.392846 0.36914,-0.466796 0.01322,-0.02673 0.01452,-0.04575 0.01172,-0.06055 -0.0029,-0.01479 -0.0098,-0.0254 -0.0098,-0.0332 -0.01151,-0.0024 -0.02426,-0.02074 -0.05469,-0.02344 z m -8.498047,1.796875 0.433594,2.283203 0.234375,0.908203 0.191406,0.371094 0.833985,-0.382812 0.105468,-0.166016 0.04492,-0.423828 0.01367,-1.078125 a 0.25578838,0.25578838 0 0 1 0.04687,-0.134766 l -0.626953,-0.269531 a 0.21536625,0.21536625 0 0 1 -0.04102,-0.02344 l -0.929687,-0.681641 a 0.21536625,0.21536625 0 0 1 -0.04492,-0.04687 z m 2.115234,1.513672 -0.01367,1.09375 -0.05664,0.492187 -0.173828,0.28125 -1.003906,0.460938 a 0.20977909,0.20977909 0 0 1 0.002,0.002 l 0.501904,1.15425 c 0.903558,0.213445 1.844625,0.330079 2.8125,0.330078 0.97906,0 1.930645,-0.11962 2.84375,-0.33789 l -0.02148,-0.03711 -0.101563,-0.402344 -0.08789,-0.537109 c 0,0 -0.01553,-0.287484 -0.02539,-0.328125 -0.0099,-0.04064 -0.01563,-0.710937 -0.01563,-0.710938 l -0.002,-1.130859 -0.0059,-0.123047 -1.230468,0.34375 a 0.25351093,0.25351093 0 0 1 -0.07227,0.0078 l -1.712891,-0.03711 a 0.25351093,0.25351093 0 0 1 -0.07422,-0.01367 L 14,23.896484 a 0.25351093,0.25351093 0 0 1 -0.02344,-0.0059 z m -4.9648432,1.580078 c 0.5327061,0.375928 1.0923582,0.711955 1.6816402,1 l 0.140625,-0.228515 a 0.20977909,0.20977909 0 0 1 0.01172,-0.01172 L 10.554688,26.019531 9.9296875,25.65625 9.3183594,25.511719 Z m 2.0664062,0.662109 a 0.25578838,0.25578838 0 0 1 0.0039,0.0098 h 0.01758 z" />
    </g>
  </g>
</svg>
