<?xml version="1.0" encoding="UTF-8" standalone="no"?>
<svg
   width="862.36804"
   height="266.9397"
   viewBox="-702 0 862.36804 266.9397"
   version="1.2"
   id="svg89"
   xmlns="http://www.w3.org/2000/svg"
   xmlns:svg="http://www.w3.org/2000/svg"><defs
   id="defs89" />
<title
   id="title1">Notebook 4</title>
\n<g
   id="g40"
   transform="rotate(5.8824933,14223.898,-1936.1075)">
  <path
     fill="#000000"
     fill-rule="evenodd"
     d="m 187,1698.38 -6.5,-0.38 -2.5,-2.5 0.5,-1.5 0.875,-2 0.625,-2.5 3.5,-3.5 6,1 2.5,2.5 -1,6 -2.5,2.5 -1.5,0.38 m -2.25,-5.63 0.25,-1.25 -0.5,-0.5 -1.5,1.5 0.5,0.5 1.25,-0.25"
     id="path40" />
</g>
<g
   id="g41"
   transform="rotate(5.8824933,14223.898,-1936.1075)">
  <path
     fill="#000000"
     fill-rule="evenodd"
     d="m 126,1717.38 -7,-0.13 -3.5,-1.25 -2.5,-2.5 -0.25,-1.25 -4.25,-1.25 -3.5,-3.5 -1.25,-3.5 v -8 l 0.75,-3 1.125,-3 0.375,-1.5 6.5,-6.5 12.5,-0.37 5,1.12 7,2.75 2,1 1.75,0.75 3.5,5.75 v 10 l -1.25,5.5 -4.5,4.5 -2.5,0.63 -10,3.75 m -1,-2.88 3.5,-0.5 2,-2 1.5,-0.5 2,-0.87 2.5,-0.63 3.5,-3.5 1.375,-4.5 -0.125,-7 -0.25,-1.5 -5.5,-5.5 -8.5,-2.25 -13.5,0.25 -4.5,4.5 -0.5,2.5 -2,6 v 3 l 0.5,2.5 4.5,4.5 7.25,1.25 -0.5,3.5 1.75,0.5 5,0.25"
     id="path41" />
</g>
<g
   id="g42"
   transform="rotate(6.919144,12025.543,-1623.9951)">
  <path
     fill="#000000"
     fill-rule="evenodd"
     d="m -47,1719.25 -10.5,-0.25 -1,-1 -0.5,0.5 -0.25,1.38 -4.25,0.12 -5,-5 h -1 l -2.5,-2.5 -1.25,-4.5 -0.125,-8 1,-4 3.625,-5.75 5.75,-3.62 3,-0.88 h 12 l 4,0.88 2,0.87 1.5,0.5 1.5,1.5 3.375,5.5 0.875,3 0.125,8 -1.375,6.5 -3.5,3.5 -4.5,2.38 -3,0.87 m -2,-2.75 3.5,-0.5 2,-2 h 1 l 4.5,-4.5 0.75,-7.5 -0.125,-2 -1.25,-3 -2.375,-4.5 -1.5,-1.5 -3.5,-1.25 -7.5,-0.75 -1,-1 -1,1 h -6 l -7.5,7.5 -0.5,2.5 -1,3 v 4 l 1.125,3 0.375,1.5 2.5,2.5 8,1 2,2 7.5,0.5 m -12.5,0.5 0.5,-1 h -1.5 l -0.5,1 h 1.5 m 2,1 0.5,-1 h -1.5 l -0.5,1 h 1.5"
     id="path42" />
</g>
<g
   id="g43"
   transform="rotate(6.919144,12025.543,-1623.9951)">
  <path
     fill="#000000"
     fill-rule="evenodd"
     d="m -113,1728.5 h -5 l -4,-1 -3.5,-0.5 -1.5,-1.5 v -1 l -1.5,-1.5 h -1 l -2.5,-2.5 -2.75,-12.5 0.25,-3 2,-5 5.5,-7.5 3.5,-3.5 3.5,-1.12 12,-0.13 3,0.75 3,1.13 1.5,0.37 3.5,3.5 5.375,9.5 0.875,3 v 10 l -0.25,1.5 -4.5,4.5 -8.5,4.38 -9,2.12 m 3,-4.25 3,-0.75 7,-3 1.5,-0.5 4.5,-4.5 0.25,-1.5 0.125,-6 -1,-3 -0.875,-2 -3,-5 -0.5,-1.5 -4.5,-4.5 -3.5,-0.5 -3,-0.87 h -7 l -4.5,1.37 -2.5,2.5 -6.125,8.5 -0.125,11 1.25,5.5 0.5,0.5 1,-1 h 2 l 2.5,2.5 0.25,1.25 1.25,0.25 2,2 9.5,-0.75"
     id="path43" />
</g>
<g
   id="g44"
   transform="rotate(6.919144,12025.543,-1623.9951)">
  <path
     fill="#000000"
     fill-rule="evenodd"
     d="m -182,1741.38 -12.5,-0.38 -1.5,-1.5 -1,-2 -6.375,-9.5 -1.125,-3 v -3 l 0.5,-3.5 2,-2 2,-4 3.5,-3.5 1.5,-0.5 2,-0.87 10,-2.38 2,0.13 4,1.25 2,0.87 1.5,0.5 3.5,3.5 v 1 l 1.5,1.5 1.25,0.25 3.75,9.75 v 3 l -2,5 -2.75,4.75 -9.75,3.75 -4,0.88 m -4,-2.63 6,-1.37 5,-1.75 2.5,-0.63 3.5,-3.5 1.25,-3.5 0.125,-5 -1,-3 -4.375,-6.5 -2.5,-2.5 h -2 l -2,-2 -6.5,0.63 -4,0.87 -3,1.13 -1.5,0.37 -1.5,1.5 -3.5,5.5 -0.75,2 -0.75,5.5 3,3 2,4 1.5,1.5 h 2 l 1.5,1.5 -1,1 0.5,0.5 3.5,0.63 2,0.12"
     id="path44" />
</g>
<g
   id="g45"
   transform="rotate(6.919144,12025.543,-1623.9951)">
  <path
     fill="#000000"
     fill-rule="evenodd"
     d="m -250,1748.38 -8.5,-0.38 -2,-2 h -1 l -1.5,-1.5 v -1 l -0.5,-0.5 -1,1 -1,-1 h -2 l -4.5,-4.5 v -2 l -2,-2 -0.375,-11.5 1.625,-4.75 8.75,-4.62 3,-1 6,-1.13 h 6 l 5,1.25 3.75,1.5 3.25,5.25 2,2 0.5,3.5 0.125,5 -1.375,8 -0.5,1.75 -7.75,5.75 -1.5,0.5 -2,2 -2.5,0.38 m 1,-4.13 2.5,-1.25 3.5,-2.5 2.5,-1.5 1.5,-1.5 0.125,-14.5 -3.125,-5.5 -1.5,-1.5 -14.5,-0.25 -6.5,1.25 -2,2 -3,1 -1.5,1.5 0.875,11.5 0.625,2 1,2 0.75,1.75 1.25,0.25 1,1 0.5,-0.5 v -1 l 0.5,-0.5 1,1 1.25,0.25 0.25,1.25 3.5,3.5 9.5,0.25"
     id="path45" />
</g>
<g
   id="g46"
   transform="rotate(6.919144,12025.543,-1623.9951)">
  <path
     fill="#000000"
     fill-rule="evenodd"
     d="m -309.5,1754 h -11 l -2,-2 -1.25,-0.25 -0.25,-1.25 -2.5,-2.5 -4,-1 -1.5,-1.5 -2.25,-4.5 v -8 l 0.75,-3 2.5,-6.5 3.5,-3.5 3.5,-1.12 13,-0.13 4,0.88 8.5,3.37 3.5,3.5 1.25,3.5 v 10 l -0.875,3 -0.875,2 -0.5,1.5 -1.5,1.5 h -1 l -2,2 -2.5,0.5 -3,1.13 -1.5,0.37 -2,2 m -1,-3 2,-2 1.5,-0.37 5,-2.13 1.5,-0.5 1.5,-1.5 0.5,-1.5 0.875,-2 1,-3 -0.125,-6 -1.25,-3.5 -2.5,-2.5 -6.5,-2.62 -7,-1.88 h -6 l -3.5,0.5 -2,2 -1.25,0.25 -2.625,4.75 -1.125,3 -1,4 0.125,3 0.875,2 0.5,1.5 2.5,2.5 2.5,0.38 5,1.37 1.5,0.25 0.5,0.5 -1.5,1.5 h -1 l -0.5,1 10.5,1"
     id="path46" />
</g>
<g
   id="g47"
   transform="rotate(5.8824933,14223.898,-1936.1075)">
  <path
     fill="#000000"
     fill-rule="evenodd"
     d="m 378.75,1683.75 -5.25,-0.75 -7.5,-7.5 -1.25,-4.5 v -8 l 0.875,-3 0.875,-2 0.5,-1.5 4.5,-4.5 4.5,-2.25 5,-1.25 h 5 l 9.5,1.5 6.5,6.5 1.25,4.5 -0.25,13.5 -6.5,6.5 -4.5,1.25 h -12.75 l -0.5,1.5 m 12.25,-4.5 2.5,-0.25 3,-3 h 1 l 1.5,-1.5 1.75,-9.5 -0.125,-2 -1.25,-3 -3.625,-5.75 -1.75,-0.62 -4,-0.88 -12,0.13 -3.5,1.12 -5.5,5.5 -1.5,6.5 v 4 l 1.125,3 0.375,1.5 1.5,1.5 3,1 1,-1 1,1 1,-1 4.5,2.5 2,0.75 h 8 m -13.5,1.75 0.5,-1 h -1.5 l -0.5,1 h 1.5"
     id="path47" />
</g>
<g
   id="g48"
   transform="rotate(5.8824933,14223.898,-1936.1075)">
  <path
     fill="#000000"
     fill-rule="evenodd"
     d="m 328,1691.25 -14.5,-0.25 -5,-5 -1.25,-0.25 -0.25,-1.25 -2,-2 -1,-12 -1,-1 1,-1 0.625,-3.5 3.375,-5.5 7.5,-7.5 4.5,-1.25 8,-0.12 5,1.12 4.75,1.5 0.5,1.5 1.5,0.5 5.25,8.25 1.375,2.5 0.875,3 v 10 l -1.25,3.5 -1.5,1.5 -5.5,3.38 -2.5,0.62 -2,2 -3.5,0.5 -3,0.75 m -4.5,-2.25 1,-1 8,-1 2,-2 2.5,-0.62 4.5,-2.38 1.5,-1.5 v -1 l 2,-2 -0.625,-6.5 -1,-3 -0.875,-2 -1.5,-2.5 -2.5,-3.5 -1.5,-2.5 -1.5,-1.5 -5.5,-1.25 -12.5,0.25 -8.5,8.5 -1.25,3.5 -0.125,9 1.625,6.88 4.25,0.12 1.5,1.5 v 1 l 2.5,2.5 6,1"
     id="path48" />
</g>
<g
   id="g49"
   transform="rotate(5.8824933,14223.898,-1936.1075)">
  <path
     fill="#000000"
     fill-rule="evenodd"
     d="m 366,1640.5 -5.5,4.75 -5,0.75 -1,1 -1,-1 -1.5,0.25 -15.5,0.75 -2,-2 h -1 l -2.5,-2.5 -3.25,-5.5 -0.125,-7 0.375,-2.5 2,-2 7.25,-9.25 1.25,-0.25 2,-2 11.5,0.63 5,1.12 3.5,1.25 3.5,3.5 0.5,1.5 1.875,4 0.875,3 v 8 l -1.25,3.5 m -8,1.63 1.5,-0.13 4.5,-4.5 0.5,-2.5 v -3 l -1.125,-4 -1.875,-4 -0.5,-1.5 -3.5,-3.5 -16,-1 -9.5,9.5 -0.375,1.5 -1.25,3 v 2 l 0.625,3.5 2.5,2.5 1,-1 2.5,0.63 4,1.75 3,0.87 14,-0.12 m -20,1.87 v -1 h -1 v 1 h 1"
     id="path49" />
</g>
<g
   id="g50"
   transform="rotate(5.8824933,14223.898,-1936.1075)">
  <path
     fill="#000000"
     fill-rule="evenodd"
     d="m 253,1705.5 h -4 l -5.5,-1.5 -2.5,-2.5 -1,-2 -2,-3 -1,-2 -3,-3 -0.5,-3.5 v -3 l 1.125,-3 1.375,-2.5 4.25,-6.25 6.75,-2.75 4,-0.87 9,0.12 3.5,1.25 8.5,8.5 1.375,4.5 0.625,4.5 1,1 -1,1 -0.625,3.5 -2.375,4.5 -2.5,2.5 -1.5,0.38 -8,2.87 -6,1.25 m 2,-4 5,-1.25 5,-1.87 1.5,-0.38 1.5,-1.5 2.25,-4.5 0.125,-6 -0.375,-2.5 -2,-2 v -1 l -6.5,-6.5 -1.5,-0.37 -3.5,-0.63 -1,-1 -1,1 -4.5,0.5 -5.5,1.5 -4.5,4.5 -2.25,4.5 -0.75,5.5 2,2 2,4 3.5,3.5 2.25,0.25 0.25,1.25 1.5,1.5 6.5,-0.5"
     id="path50" />
</g>
<g
   id="g51"
   transform="rotate(5.8824933,14223.898,-1936.1075)">
  <path
     fill="#000000"
     fill-rule="evenodd"
     d="m 278.5,1662 -1,-1 -1,1 -1,-1 -2.5,-0.62 -5,-2.88 -1.5,-0.5 -0.5,0.5 1.5,1.5 1.25,0.25 0.25,1.25 -1.5,1.5 -3,-1 -1.5,-1.5 -5.375,-9.5 -0.875,-3 0.125,-11 1.125,-3.5 4.5,-4.5 5.5,-1.5 5,-0.87 12,0.12 5.5,1.25 5.5,5.5 1.25,4.5 -0.125,12 -3.125,5.5 -2.5,2.5 -1.5,0.5 -7,2.88 -3.5,0.62 -1,1 m 1.5,-4.62 3,-0.88 3,-1.12 1.5,-0.38 6.5,-6.5 0.625,-4.5 -0.625,-8.5 -5.5,-5.5 -17.5,-0.25 -6.5,1.25 -2.5,2.5 v 1 l -2,2 -0.5,3.5 0.125,5 1,3 2.375,4.5 1.5,1.5 4.5,0.75 2,0.75 2,1 2,0.75 5,0.13"
     id="path51" />
</g>
<g
   id="g52"
   transform="rotate(5.8824933,14223.898,-1936.1075)">
  <path
     fill="#000000"
     fill-rule="evenodd"
     d="m 201,1656.5 -3,-0.12 -2,-0.88 -1.5,-0.5 -1.5,-1.5 0.625,-3.5 0.75,-2 0.625,-2.5 1.5,-1.5 3.5,-1.25 4.5,-0.75 2.5,2.5 0.25,1.5 v 5 l -0.25,1.5 -3.5,3.5 -2.5,0.5"
     id="path52" />
</g>
<g
   id="g53"
   transform="rotate(5.8824933,14223.898,-1936.1075)">
  <path
     fill="#000000"
     fill-rule="evenodd"
     d="m 148,1674.5 h -4 l -8,-2.12 -2,-0.88 -1.5,-0.5 -4.5,-4.5 -1,-4 1,-1 -1,-1 -0.25,-10.5 0.875,-3 2.375,-4.5 1.5,-1.5 4.5,-2.37 3,-1 7,-0.13 7,1.25 3.5,1.25 3.5,3.5 v 1 l 2,2 0.375,10.5 -1.125,5 -2.75,5 -0.5,1.5 -3.5,3.5 -1.5,0.5 -5,2 m 1,-4.25 3.5,-1.25 2.5,-2.5 0.5,-1.5 2.75,-5 1.25,-5 v -4 l -0.5,-2.5 -2,-2 v -1 l -3.5,-3.5 -16,-1 -2,2 h -1 l -3.5,3.5 -1.375,4.5 v 7 l 0.375,2.5 2,2 0.25,1.25 1.5,0.5 0.25,1.25 1,1 -1,1 1.5,1.5 6.5,1.38 7,-0.13"
     id="path53" />
</g>
<g
   id="g54"
   transform="rotate(6.919144,12025.543,-1623.9951)">
  <path
     fill="#000000"
     fill-rule="evenodd"
     d="m -80,1682.25 -14.5,0.75 -1,-1 -1,1 -1.5,0.38 h -3 l -4.75,-2.63 -4.5,-6.75 v -8 l 0.75,-2 4.75,-6.75 1.5,-0.5 0.25,-1.25 3.5,-3.5 15.5,-0.25 4,0.88 2,0.87 1.5,0.5 1.5,1.5 v 1 l 2,2 0.625,2.5 1.625,4 -0.25,10.5 -2,2 v 1 l -1.5,1.5 h -1 l -2,2 -2.5,0.25 m -1.5,-2.25 1,-1 3,-1 2.5,-2.5 0.375,-1.5 1.125,-3 v -3 l -3,-8 -0.5,-1.5 -1.5,-1.5 -3.5,-1.25 -6,-1.25 -8,0.25 -1.5,0.25 -1.5,1.5 -7.375,9.5 -1.25,3 v 2 l 0.625,2.5 2.5,2.5 1,-1 1.5,0.5 6,2.88 3,0.87 9.5,0.75 1,-1 1,1 m -19.5,0 v -1 h -1 v 1 h 1 m 2,1 v -1 h -1 v 1 h 1"
     id="path54" />
</g>
<g
   id="g55"
   transform="rotate(6.919144,12025.543,-1623.9951)">
  <path
     fill="#000000"
     fill-rule="evenodd"
     d="m -141,1687.5 -7.5,7 -8.5,2.88 -7,-0.13 -3.5,-1.25 -2,-2 h -2.5 l 0.5,1 h 1 l 1.5,1.5 -0.25,1.38 h -4.5 l -0.75,-1.88 -5,-8 -1,-2 -0.625,-2 v -12 l 3.125,-5.5 1.5,-1.5 4.5,-1.37 5,-0.88 16,0.13 2,0.62 4.75,2.75 0.5,1.5 1.5,0.5 0.625,1.75 0.875,4 -0.25,13.5 m -4,-1 0.25,-1.5 1.5,-5 v -2 l -1.5,-6 -0.25,-1.5 -2.5,-2.5 -1.5,-0.5 -2,-0.87 -3,-1 -5,-0.25 -10,1.25 -5.75,1.62 -2.75,4.75 -0.75,2 -0.25,6 0.5,3.5 2,2 1,3 1.5,1.5 1,-1 1.5,0.38 9,4.12 2,0.13 9.5,-3.13 5.5,-5"
     id="path55" />
</g>
<g
   id="g56"
   transform="rotate(6.919144,12025.543,-1623.9951)">
  <path
     fill="#000000"
     fill-rule="evenodd"
     d="m -208.5,1701 -4,2.5 -5.5,1.75 h -8 l -4.5,-1.25 -2,-2 -1,1 -4,-1 -1.5,-1.5 -3.5,-5.5 -2.875,-6 -1.125,-4 0.125,-3 1.875,-4 0.5,-1.5 5.5,-5.5 8.5,-4.37 2.5,-0.63 1,-1 1,1 1,-1 1,1 1,-1 1,1 4.5,0.63 7.5,2.37 5.5,5.5 2.5,9.5 -0.125,6 -1,3 -0.875,2 -0.5,1.5 -4.5,4.5 m -2,-3 3.5,-3.5 1.25,-3.5 -0.25,-13.5 -5.5,-5.5 -2.5,-0.62 -2,-0.75 -4,-1 -8,0.12 -4.5,1.25 -3,3 h -1 l -4.5,4.5 v 1 l -2,2 0.625,5.5 1,3 1.875,4 0.5,1.5 1.5,1.5 0.5,-0.5 0.25,-1.25 3.75,2.25 4,3 2,0.88 3.5,0.62 1,1 1,-1 4.5,-0.75 2,-0.75 4.5,-2.5"
     id="path56" />
</g>
<g
   id="g57"
   transform="rotate(6.919144,12025.543,-1623.9951)">
  <path
     fill="#000000"
     fill-rule="evenodd"
     d="m -207,1639.25 -4.5,0.75 -2,-2 h -1 l -2.5,-2.5 v -4 l 2,-2 v -1 l 1.5,-1.5 2.5,0.38 6.75,1.87 1.25,3.25 1,1 -1,1 v 2 l -2.5,2.5 -1.5,0.25"
     id="path57" />
</g>
<g
   id="g58"
   transform="rotate(6.919144,12025.543,-1623.9951)">
  <path
     fill="#000000"
     fill-rule="evenodd"
     d="m -274.25,1714.88 -4.25,0.12 -1,1 -1,-1 -4,-1 -4,-4 -1,1 -7.5,-0.75 -3,-0.75 -6.5,-2.5 -2.5,-2.5 -1.25,-3.5 -1.25,-6 0.25,-9 1.25,-4.5 4.5,-4.5 4.5,-2.25 6,-0.87 0.75,-9.88 1.75,-6 2,-5 0.125,-2 -1,-3 v -7 l 1,-3 3.625,-5.75 7.75,-5.75 2,-0.87 3,-1 5,-0.13 5,1.13 5,1.75 h 3 l 2,-0.75 6.5,-1.63 0.5,-0.5 -1.5,-1.5 -1.25,-0.25 -0.5,-1.75 -0.75,-4.5 1.5,-1.5 6,1 2,2 2.5,0.63 4,1.87 5,3 1.75,0.75 0.75,1.75 1,2 0.125,2 -1.875,4.75 -1.25,0.25 -1.5,1.5 v 1 l -3.5,3.5 h -4 l -2.5,-2.5 0.625,-3.5 0.625,-1.75 1.5,-0.5 0.25,-1.25 -0.5,-0.5 -1,1 -1,-1 -3.5,0.38 -8.75,1.87 0.125,1.75 0.875,4 v 11 l -1.25,5.5 -2,2 v 1 l -3.5,3.5 -1.5,0.5 -5,2 -3,0.88 h -7 l -2.5,-0.38 -2,-2 -1.25,-0.25 -0.5,-1.5 -3.25,-1.25 -1,-1 -0.5,0.5 -2.75,12.5 v 2.88 l 6.25,1.12 4.5,4.5 v 1 l 2,2 0.375,10.5 -1,4 -1.875,4 -0.5,1.5 -3,3 1,1 0.25,1.25 1.75,0.63 3.5,0.62 2.5,2.5 -1,1 -0.25,1.38 m 1.75,-78.88 3,-2 4.5,-2.5 1.5,-0.5 0.5,-0.5 -1.5,-1.5 -1.5,-0.25 h -9 l -3.5,1.25 -8.5,8.5 -0.375,1.5 -1.25,3 v 2 l 0.625,3.5 0.5,0.5 10,-10 5,-3 m 0,27 1,-1 4.5,-0.75 2,-0.75 4,-2 1.5,-0.5 1.5,-1.5 v -1 l 2,-2 1.5,-6.5 v -5 l -1.75,-6.75 -1.75,0.25 -1.5,0.5 -2,2 h -2 l -2,2 -1.5,0.5 -8.75,5.75 -0.5,1.5 -1.5,0.5 -0.25,1.25 -6,6 0.5,0.5 2.25,0.25 0.25,1.25 3.5,3.5 2.5,0.63 2.5,1.37 m -17.625,44.88 -0.375,-5.88 -4,-17 -0.625,-7.75 -2.875,0.25 -3,1.13 -1.5,0.37 -5.5,5.5 -0.5,3.5 0.125,6 1.375,4.5 4,4 -1,1 0.25,1.25 4.75,1.75 4,1 4.875,0.38 m 7.875,-6.13 2.625,-5.75 1.25,-4 0.125,-2 -1.5,-5 -0.25,-1.5 -4.5,-4.5 -4,-1 -0.5,0.5 1,1 0.625,6.5 3.625,15.75 h 1.5"
     id="path58" />
</g>
<g
   id="g59"
   transform="rotate(5.8824933,14223.898,-1936.1075)">
  <path
     fill="#000000"
     fill-rule="evenodd"
     d="m 309,1605.38 h -12 l -6.5,-1.38 -4.5,-4.5 -1.25,-3.5 -0.75,-6.5 -1,-1 1,-1 0.625,-4.5 1,-3 0.875,-2 0.5,-1.5 6.5,-6.5 13.5,-2.75 5.5,0.75 3,3 h 1 l 1.5,1.5 0.5,1.5 4,8 0.625,2 v 12 l -1.125,3.5 -3.5,3.5 -9.5,2.38 m -1,-3 7.5,-1.38 2,-2 1.25,-0.25 1.625,-4.75 v -7 l -1,-3 -1.75,-4 -0.625,-2.5 -2,-2 -0.25,-1.25 -4.75,-2.5 -5,-0.25 -9.5,1.5 -5.5,5.5 -0.5,1.5 -0.875,2 -1,4 0.125,9 0.5,1.75 5.75,3.75 2,0.88 3,0.87 9,0.13"
     id="path59" />
</g>
<g
   id="g60"
   transform="rotate(5.8824933,14223.898,-1936.1075)">
  <path
     fill="#000000"
     fill-rule="evenodd"
     d="m 240,1611.5 -5,2.75 h -8 l -5,-2.62 -2.5,-0.63 -3.5,-3.5 -0.375,-1.5 -1.125,-3 -0.75,-4 0.125,-11 0.5,-2 1.25,-3 0.375,-1.5 6.5,-6.5 1.5,-0.5 2,-0.87 3,-0.88 8,-0.12 5,1.12 2,0.75 5.75,3.75 2.625,4.75 1.125,3 1,4 -0.25,6 -0.75,2 -3.5,5.5 -1.5,1.5 -8.5,6.5 m -3.5,-0.5 3,-3 7,-5 2.5,-2.5 2.25,-4.5 0.125,-6 -0.875,-3 -1.125,-3 -0.375,-1.5 -5.5,-5.5 -6.5,-1.37 h -7 l -3,1 -2,0.87 -1.5,0.5 -4.5,4.5 -0.5,1.5 -0.875,2 -1,4 v 8 l 1.375,7.5 2.5,2.5 1.5,0.38 3,1.12 4,0.88 7.5,0.62"
     id="path60" />
</g>
<g
   id="g61"
   transform="rotate(5.8824933,14223.898,-1936.1075)">
  <path
     fill="#000000"
     fill-rule="evenodd"
     d="m 175,1627.38 -6.5,1.62 -1,1 -1,-1 -1,1 -1,-1 h -3 l -2,-2 -6,-4 -1.5,-1.5 -1,-2 -2,-3 -1.375,-2.5 -1,-3 -0.125,-6 0.5,-3.5 2,-2 v -1 l 7.5,-7.5 1.5,-0.5 2,-1 2,-0.62 11,-0.13 3,0.88 2,0.87 1.5,0.5 5.5,5.5 1.25,4.5 v 12 l -0.875,4 -0.875,2 -0.5,1.5 -5.5,5.5 -1.5,0.5 -2,0.88 m -0.5,-3.38 2,-2 h 1 l 4.5,-4.5 0.5,-3.5 1,-4 v -5 l -1.25,-5 -0.25,-1.5 -4.5,-4.5 -1.5,-0.37 -3,-1.13 -3,-0.87 -6,0.12 -2,0.75 -2,1 -1.5,0.5 -6.5,6.5 v 1 l -2,2 -0.625,3.5 v 2 l 4.125,9 0.75,1.75 2.25,0.25 5,5 2.5,0.38 h 5 l 5.5,-1.38"
     id="path61" />
</g>
<g
   id="g62"
   transform="rotate(8.4339942,9957.228,-1073.9645)">
  <path
     fill="#000000"
     fill-rule="evenodd"
     d="m 110,1584.63 -2,0.87 -5,3 -7,2.75 -5,1.25 -3.5,0.5 -2,2 -2.5,0.63 -7.5,2.37 -2.5,-2.5 v -2 l 2.5,-2.5 6,-1 2,-2 6.5,-1.5 12.75,-4.75 v -1.5 l -32.75,-10.5 -5,-1.12 -24.5,-2.63 -1,-1 -1,1 -1,-1 -1,1 -28.5,1.63 -13.5,2.37 -1,1 -1,-1 -1,1 -6.5,0.75 -34,11.88 -2.5,1.37 -14,9 -2,1 -2.5,2.5 v 1 l -2.5,2.5 h -2 l -2.5,-2.5 0.625,-2.5 3.625,-5.75 1.75,-0.75 6.5,-4.5 12.5,-7.5 2,-0.87 2.5,-0.63 2,-2 2.5,-0.5 27,-8.75 38,-5.25 15.5,-0.5 1,-1 1,1 h 3 l 1,-1 1,1 1,-1 1,1 19,2 1,1 1,-1 1.5,0.38 3.5,0.62 2,2 5.5,0.75 3.5,1.25 1,1 1,-1 2,2 6,1 0.5,-0.5 -1.5,-1.5 -2,-1 -3,-2 -2.25,-1.25 -0.25,-1.25 -2.5,-2.5 h -1 l -3.5,-3.5 v -2 l 1.5,-1.5 h 1 l 1,-1 1,1 1.5,0.5 9,5 1.5,0.5 2,2 2.5,0.63 2,0.75 2.5,0.62 2,2 5.25,3.25 0.25,1.25 6,6 v 2 l 1,1 -3,3 v 1 l -2.5,2.5 -2.5,0.63 M 95,1570 v -1 h -1 v 1 h 1"
     id="path62" />
</g>
<g
   id="g63"
   transform="rotate(6.919144,12025.543,-1623.9951)">
  <path
     fill="#000000"
     fill-rule="evenodd"
     d="m -131,1642.38 h -8 l -5,-1 -4.5,-1.38 -1.5,-1.5 -3.25,-5.5 -0.75,-5.5 -1,-1 1,-1 0.75,-6.5 0.75,-2 2,-4 0.75,-1.75 1.5,-0.5 0.5,-1.5 4.75,-2.62 3,-1 6,-1.13 7,0.25 3.5,1.25 3.5,3.5 0.5,1.5 4,8 0.625,2 v 11 l -0.625,2 -1,2 -0.75,1.75 -4.75,2.5 -9,2.13 m -0.5,-2.38 1,-1 2.5,-0.37 5,-1.38 1.5,-0.25 2.5,-2.5 1.25,-3.5 v -8 l -3.75,-9 -0.5,-1.5 -3.5,-3.5 -1.5,-0.25 -10,-0.12 -6.5,1.37 -3.5,3.5 -2.375,4.5 -1,4 0.125,9 0.25,1.5 1.5,1.5 5.5,3.5 2,0.88 3,1 4.5,0.62 1,-1 1,1"
     id="path63" />
</g>
<g
   id="g64"
   transform="rotate(6.919144,12025.543,-1623.9951)">
  <path
     fill="#000000"
     fill-rule="evenodd"
     d="m -168,1602.25 -6,0.25 -9.5,-2.5 -2,2 h -1 l -5.5,-5.5 -2.75,-12.5 0.125,-2 1.25,-4 3.375,-5.5 1.5,-1.5 h 1 l 2,-2 17.5,0.88 3,0.75 2,0.87 1.5,0.5 2.5,2.5 1.125,3.5 v 14 l -0.625,2 -1,2 -0.5,1.5 -1.5,1.5 -4.5,2.5 -2,0.75 m -0.5,-3.25 2,-2 3.25,-1.25 1.625,-3.75 1.125,-4 -0.125,-6 -1.375,-5.5 -1.5,-1.5 -1.5,-0.5 -2,-0.87 -4,-0.88 -14.5,0.25 -3.5,3.5 -1.125,3.5 v 11 l 1.125,3.5 1.5,1.5 6.5,0.75 6,1.63 6.5,0.62"
     id="path64" />
</g>
<g
   id="g65"
   transform="rotate(6.919144,12025.543,-1623.9951)">
  <path
     fill="#000000"
     fill-rule="evenodd"
     d="m -241,1613.13 -11,0.25 -7.5,-1.38 -1.5,-1.5 -3.5,-5.5 -3,-7 v -4 l 1.125,-3 2.375,-4.5 5.5,-5.5 5.5,-1.37 5,-0.13 6,1.13 4.5,1.37 5.5,5.5 2.625,8.5 -0.125,3 -1.125,4 -0.875,2 -0.5,1.5 -5.5,5.5 -3.5,1.13 m -2,-2.88 2,-0.75 2,-1 1.75,-0.75 0.25,-1.25 3,-3 0.25,-11.5 -0.25,-1.5 -5.5,-5.5 -4.5,-1.25 h -10 l -3.5,1.25 -5.5,5.5 -0.375,2.5 0.125,7 0.75,2 1,2 0.5,1.5 3.5,3.5 14.5,1.25"
     id="path65" />
</g>
<g
   id="g66"
   transform="rotate(5.8824933,14223.898,-1936.1075)">
  <path
     fill="#000000"
     fill-rule="evenodd"
     d="m 271,1565.25 -9,0.13 -4,-1 -2,-0.88 -1.75,-0.25 -0.5,1.5 -3.25,0.25 -3.5,-3.5 v -1 l -2,-2 -0.25,-2.5 -1.5,-8 v -2 l 1.5,-5 0.25,-1.5 6.5,-6.5 16.5,-0.25 3,0.75 3,1.13 1.5,0.37 3.5,3.5 1.125,3.5 0.125,13 -1.25,4.5 -2.5,2.5 -5.5,3.25 m -3,-2.75 2.5,-0.5 3,-3 1.25,-0.25 0.25,-1.25 2,-2 0.375,-10.5 -1.375,-4.5 -2.5,-2.5 -3.5,-1.25 -6,-1.37 -10.5,0.62 -5.5,5.5 -0.25,12.5 1.25,4.5 1.5,1.5 1.5,-0.37 4,-0.13 5,1.88 7,1.12"
     id="path66" />
</g>
<g
   id="g67"
   transform="rotate(5.8824933,14223.898,-1936.1075)">
  <path
     fill="#000000"
     fill-rule="evenodd"
     d="m 198,1576.13 -18.5,-0.13 -2.5,-2.5 -1.5,-2.5 -2.5,-3.5 -1.375,-2.5 -1.125,-4 v -3 l 1.125,-4 3.375,-5.5 3.5,-3.5 4.5,-1.25 12,0.13 2,0.5 3,1.25 1.5,0.37 4.5,4.5 2.75,9.5 -0.125,2 -1.625,6.5 -2,2 v 1 l -2.5,2.5 -4.5,2.13 m -2,-3 4.5,-2.13 2.5,-2.5 1.25,-4.5 v -8 l -1.25,-3.5 -3.5,-3.5 -3.5,-1.25 -5,-1.25 -6,0.13 -4.5,1.37 -2.5,2.5 -3.25,5.5 -0.125,7 0.375,2.5 2,2 v 1 l 3.5,3.5 4.5,1.25 11,-0.12"
     id="path67" />
</g>
<g
   id="g68"
   transform="rotate(5.8824933,14223.898,-1936.1075)">
  <path
     fill="#000000"
     fill-rule="evenodd"
     d="m 240,1529.5 -5.5,5.5 -17.5,3.5 -8,-0.25 -1.5,-0.25 -4.5,-4.5 0.25,-2.25 1.25,-0.25 0.5,-0.5 -3,-3 -2.125,-4.5 -0.125,-12 0.875,-3 0.875,-2 3.5,-5.5 1,-2 2.5,-2.5 1.5,-0.5 4,-1.87 6.5,-1.63 1,-1 1,1 4.5,0.63 3,1 5.5,3.37 1.5,1.5 0.5,1.5 3.5,5.5 1.125,2.5 0.125,14 -0.875,4 -0.875,2 -0.5,1.5 m -2,-3 1,-7 1,-1 -1,-1 1,-1 -0.5,-3.5 -1.25,-5 -2.75,-5 -0.5,-1.5 -2.5,-2.5 -4.5,-2.37 -3,-1 -5,-0.13 -6.5,1.5 -2,2 h -1 l -2.5,2.5 -2.5,4.5 -1.875,4 -0.875,3 v 9 l 2.25,4.5 4.5,4.5 6,1 1.5,1.5 -1,1 0.5,0.5 5.5,-0.5 11.5,-2.5 4.5,-5.5 m -32,5.5 v -1 h -1 v 1 h 1 m 1,1 v -1 h -1 v 1 h 1 m 1,1 v -1 h -1 v 1 h 1 m 2.5,1 0.5,-1 h -2.5 l -0.5,1 h 2.5 m 1.5,1 v -1 h -1 v 1 h 1 m 2.5,0 0.5,-1 h -1.5 l -0.5,1 h 1.5"
     id="path68" />
</g>
<g
   id="g69"
   transform="rotate(6.919144,12025.543,-1623.9951)">
  <path
     fill="#000000"
     fill-rule="evenodd"
     d="m -207,1572.5 -9,1.75 -14.5,0.75 -4.5,-4.5 0.25,-2.25 1.25,-0.25 0.5,-0.5 -3,-3 -2.125,-4.5 -0.125,-12 0.875,-3 1.875,-4 2.5,-4.5 4.5,-4.5 h 1 l 2,-2 3.5,-0.5 4,-1 5,0.13 3,0.87 3,1.13 1.5,0.37 4.5,4.5 1,2 2,3 1.375,2.5 0.875,3 v 13 l -0.875,3 -1.875,4 -0.5,1.5 -3.5,3.5 -1.5,0.38 -3,1.12 m -2,-3 3.5,-0.5 4.5,-4.5 1.375,-4.5 0.625,-4.5 1,-1 -1,-1 1,-1 -1,-8 -3,-3 -1,-3 -4.5,-4.5 -4.5,-1.25 h -8 l -3,0.88 -2,0.87 -1.5,0.5 -3.5,3.5 -3.5,5.5 -0.875,2 -1,4 0.125,8 0.75,2 3.5,5.5 2.5,2.5 6,1 1.5,1.5 -1,1 0.5,0.5 12.5,-2.5 m -22,0.5 v -1 h -1 v 1 h 1 m 1.5,1 0.5,-1 h -1.5 l -0.5,1 h 1.5 m 3,1 0.5,-1 h -2.5 l -0.5,1 h 2.5"
     id="path69" />
</g>
<g
   id="g70"
   transform="rotate(6.919144,12025.543,-1623.9951)">
  <path
     fill="#000000"
     fill-rule="evenodd"
     d="m -77,1741.5 -87.5,9.5 -1,1 -1,-1 -1,1 -26.5,1.5 -14,2 -4,1 -3.5,0.5 -1,-1 -1,1 -13,1 -1,1 -1,-1 -1,1 -18.5,0.63 -94.5,8.37 -1,-1 -1,1 h -8 l -1,1 -1,-1 -20,2 -2,2 -2.25,-0.25 -0.875,-2.75 0.125,-2 0.75,-1.75 2.5,-0.5 0.5,-3.5 1.25,-0.25 5.5,-5.5 0.5,-1.5 20.5,-32.5 6.5,-8.5 12.5,-19.5 1.375,-2.5 0.625,-2.5 2,-2 1,-4 2,-2 0.5,-1.5 11.5,-20.5 2,-2 v -2 l 2,-2 0.5,-1.5 0.875,-2 0.625,-2.5 2,-2 0.5,-1.5 0.875,-2 0.625,-2.5 2,-2 v -2 l 2,-2 0.25,-2.25 1.5,-0.5 0.25,-3.25 2,-2 0.5,-1.5 7.875,-12 2.125,-5 7,-15 25,-43 2.5,-3.5 8.5,-13.5 3.5,-6.5 3.5,-5.5 0.5,-1.5 2,-2 -1,-1 0.5,-0.5 h 1 l 1.5,-1.5 1.25,-4.25 1.5,-0.5 0.25,-2.25 2,-2 v -1 l 3.5,-3.5 h 1 l 1,-1 1,1 4,1 1.5,1.5 0.25,1.25 1.25,0.25 8.5,8.5 24,26 9.5,9.5 6,4 1.5,1.5 0.25,1.25 1.5,0.5 0.25,1.25 2.5,2.5 h 1 l 1.5,1.5 v 1 l 1.5,1.5 h 1 l 8.5,8.5 0.25,1.25 4.75,3.75 8.5,7.5 5.25,4.25 0.25,1.25 3.5,3.5 h 1 l 1.5,1.5 0.25,1.25 6.25,4.25 8,6 4.5,4.5 v 1 l 3.5,3.5 h 1 l 1.5,1.5 v 1 l 1.5,1.5 1.25,0.25 0.5,1.5 2.5,0.5 0.25,1.25 2.5,2.5 h 1 l 4.5,4.5 v 1 l 1.5,1.5 17.25,15.25 0.5,1.5 2.75,1.75 20.75,16.75 0.25,1.25 1.5,1.5 h 1 l 1.5,1.5 0.25,1.25 1.25,0.25 1.5,1.5 0.25,1.25 1.25,0.25 1.5,1.5 0.25,1.25 11.25,9.25 3.5,3.5 0.25,1.25 1.5,0.5 0.5,1.5 1.25,0.25 8.5,8.5 v 1 l 0.5,0.5 1,-1 0.5,0.5 v 1 l 1.5,1.5 h 1 l 1.5,1.5 v 1 l 1.5,1.5 h 1 l 3.5,3.5 v 4 l 2.5,2.5 4,1 3.5,3.5 0.625,3.5 -0.125,2 -0.75,1.75 -1.75,0.5 -31,3.63 -6.5,-0.88 -1,1 -1,-1 -1,1 h -4 l -1,-1 -1,1 -1,-1 -18,2 -1,1 -1,-1 -1,1 h -3 l -1,1 -1,-1 -22.5,3.5 m -69,1 10.5,-1.5 1,-1 1,1 1,-1 1,1 1,-1 9,-1 1,-1 1,1 h 2 l 2,-2 1,1 1,-1 10,-1 1,1 1,-1 7,-1 1,1 1,-1 9,-1 1,1 1,-1 h 4 l 1,-1 1,1 1,-1 17,-1 1,-1 1,1 1,-1 59,-4 1,1 1,-1 h 4 l 0.5,-1 H 9.5 l -3,-3 h -2 l -1.5,-1.5 1,-5 -2.5,-2.5 -3,-1 -3.5,-3.5 -0.25,-1.25 -4.25,-2.25 -1.5,-1.5 -0.25,-1.25 -16.25,-14.25 -1.5,-1.5 v -1 l -14.5,-14.5 -1.25,-0.25 -0.25,-1.25 -1.5,-1.5 h -1 l -2.5,-2.5 -0.25,-1.25 -1.5,-0.5 -0.5,-1.5 -2.25,-1.25 -4,-3 -27.25,-24.25 -3.5,-5.5 -10.25,-8.25 -4.5,-4.5 -6.25,-8.25 -2.25,-1.25 -3.5,-2.5 -26,-23 -3.5,-2.5 -4.5,-4.5 v -1 l -4.5,-4.5 -21,-19 -3,-2 -5.5,-5.5 -24.5,-26.5 -2.75,-3.75 -1.5,-0.5 -0.5,-1.5 -1.25,-0.25 -2.5,-2.5 v -1 l -0.5,-0.5 -2.5,2.5 -1.5,2.5 -3,4 -5,8 -5,7 -5,9 -0.75,1.75 -1.5,0.5 -0.75,1.75 -7,11 -2,4 -3.5,5.5 -2.5,4.5 -0.5,1.5 -2,2 v 2 l -2,2 -0.5,1.5 -12,21 -4.875,12 -0.625,2.5 -2,2 -0.5,1.5 -8,12 -10,20 -0.5,1.5 -2,2 -0.625,2.5 -0.875,2 -33.5,57.5 -9.5,13.5 -6,10 -7,10 -7.5,12.5 -3,3 0.5,0.5 h 4 l 1,-1 1,1 1,-1 h 2 l 1,1 1,-1 1,1 1,-1 h 10 l 1,-1 1,1 1,-1 10.5,-0.62 5,-0.63 19.5,-0.75 1,-1 1,1 1,-1 h 7 l 1,1 1,-1 1,1 1,-1 15,-1 1,-1 1,1 1,-1 8.5,0.75 4.5,-0.75 1,-1 1,1 1,-1 h 4 l 1,-1 1,1 1,-1 17,-1 1,1 1,-1 49,-7 1,1 1,-1 h 2 l 1,-1 1,1 1,-1 33.5,-2.5 M 13,1727 v -1 h -1 v 1 h 1"
     id="path70" />
</g>
<g
   id="g71"
   transform="rotate(5.8824933,14223.898,-1936.1075)">
  <path
     fill="#000000"
     fill-rule="evenodd"
     d="m 437.5,1699 -2,-1 -1,1 -1,-1 h -2 l -1,1 -1,-1 -7,1 -1,-1 -1,1 -34,2 -1,1 -1,-1 -1,1 -2.5,0.38 -5,1.25 -2.5,0.37 -1,-1 -1,1 h -3 l -1,-1 -1,1 h -2 l -1,1 -1,-1 -1,1 -62,7 -1,-1 -1,1 -10,1 -1,1 -1,-1 -1,1 h -7 l -1,1 -1,-1 -1,1 -13.5,0.88 -4,-0.63 -20,2.38 -17,3.12 -5,-0.37 -5.5,0.62 -1,1 -1,-1 -1,1 h -5 l -1,1 -1,-1 -1,1 -2.5,-0.62 h -2 l -3.5,0.62 -1,-1 -1,1 -13.5,1.5 -5,1.25 -1.5,0.25 -1,-1 -1,1 -4,-1 -1,1 -1,-1 -1,1 -9.5,0.5 -7,1 -10,-0.25 -37.5,3.75 -1,-1 -1,1 -12,1 -1,-1 -1,1 h -10 l -1,1 -1,-1 -1,1 -1,-1 -1.5,0.38 -3.5,0.62 -2,2 h -2 l -2.5,-2.5 1,-3 1.5,-1.5 1.25,-0.25 0.25,-2.25 2.5,-2.5 h 1 l 1.5,-1.5 1,-2 23.5,-36.5 5.5,-7.5 13.5,-21.5 24,-44 0.5,-1.5 2,-2 0.625,-2.5 3.625,-8.75 1.5,-0.5 0.875,-2.75 0.875,-2 9,-14 3.875,-8 0.625,-2.5 2,-2 0.625,-2.5 0.75,-2 0.625,-2.5 2,-2 1,-3 2,-2 v -2 l 3,-3 0.5,-1.5 5,-9 0.5,-1.5 2,-2 v -2 l 2,-2 7.5,-13.5 11,-17 5,-9 0.75,-1.75 1.5,-0.5 0.25,-2.25 2,-2 0.375,-1.5 1.875,-4.75 1.25,-0.25 1.5,-1.5 0.5,-1.5 3.5,-6.5 2.5,-2.5 6,1 8,8 1.25,0.25 18.5,20.5 1.5,0.5 0.5,1.5 1.25,0.25 1.5,1.5 0.25,1.25 1.5,0.5 4.5,6.5 5.25,4.25 22,20 5.5,5.5 v 1 l 4.5,4.5 3,2 20.25,18.25 0.25,1.25 1.5,1.5 h 2 l 3,3 1,-1 0.5,0.5 0.25,1.25 1.5,0.5 0.25,1.25 3.5,3.5 1.25,0.25 3.5,5.5 4.5,2.5 0.5,1.5 1.5,0.5 0.25,1.25 1.5,1.5 6.25,4.25 0.25,1.25 6.5,6.5 19,17 5,5 4.25,1.25 0.25,1.25 8.5,8.5 5,3 1.5,1.5 0.25,1.25 1.25,0.25 1.5,1.5 v 1 l 1.5,1.5 h 1 l 1.5,1.5 0.25,1.25 1.5,0.5 0.5,1.5 1.25,0.25 1.5,1.5 0.25,1.25 1.25,0.25 2.5,2.5 0.25,1.25 1.25,0.25 2.5,2.5 0.25,1.25 6.25,4.25 2.5,2.5 v 1 l 1.5,1.5 h 1 l 2.5,2.5 0.25,1.25 1.25,0.25 1.5,1.5 v 1 l 0.5,0.5 1,-1 0.5,0.5 0.25,1.25 1.5,0.5 0.5,1.5 1.25,0.25 1.5,1.5 0.375,1.5 0.625,3.5 2.5,2.5 1.5,0.5 2,1 1.5,0.5 2.5,2.5 0.625,3.5 -0.125,2 -0.5,1.5 -1.5,1.5 -4,1 -1,-1 -1,1 h -3 l -1,1 -1,-1 -3,1 -1,-1 -1,1 h -3 l -1,1 m 1.5,-7.37 7.5,-0.63 1,-1 1,1 0.5,-0.5 -0.25,-1.25 -4.75,-2.75 -1.5,-0.5 -1.5,-1.5 1,-5 -1.5,-1.5 -1.5,-0.5 -5,-4 -19.5,-17.5 -1.5,-1.5 -0.25,-1.25 -1.25,-0.25 -3.5,-3.5 v -1 l -2.5,-2.5 -1.25,-0.25 -0.5,-1.5 -1.5,-0.5 -0.5,-1.5 -1.25,-0.25 -1.5,-1.5 v -1 l -2.5,-2.5 -1.25,-0.25 -0.5,-1.5 -14.75,-12.75 -3.5,-2.5 -21,-19 -4.5,-4.5 v -1 l -4.5,-4.5 -10.25,-8.25 -2.25,-4.25 -7.5,-7.5 -1.25,-0.25 -0.5,-1.5 -4.75,-2.75 -18.75,-16.75 -0.5,-1.5 -3.25,-2.25 -33.5,-31.5 -4.5,-3.5 -7.5,-7.5 v -1 l -2.5,-2.5 -1.25,-0.25 -21.25,-23.25 -2.25,-3.25 -5.25,-3.25 -1.5,1.5 -0.5,1.5 -2,3 -3,4 -21.5,33.5 -1,2 -2,2 v 2 l -2,2 -18.5,32.5 -3.875,8 -0.625,2.5 -2,2 -0.5,2.5 -1.125,3 -5.875,11 -0.75,1.75 -1.5,0.5 -1.25,2.25 -3.5,5.5 -2.875,6 -0.625,2.5 -2,2 -0.5,1.5 -5.875,12 -0.625,2.5 -2,2 -0.5,1.5 -17.875,31 -0.625,2.5 -2,2 -0.5,1.5 -13.5,21.5 -6,8 -22,34 -1,2 -1,1 0.5,0.5 17,-1 1,-1 1,1 1,-1 h 7 l 1,-1 1,1 1,-1 37,-2 1,-1 1,1 8.5,-0.5 7,-0.87 18.5,-0.63 1,-1 1,1 1,-1 12.5,-1.5 13.5,-0.5 1,-1 1,1 h 2 l 1,-1 1,1 1,-1 11,-1 1,-1 1,1 1,-1 h 2 l 1,1 1,-1 3.5,-0.5 3,-1.12 1.5,-0.38 1,1 1,-1 30,-3 1,-1 1,1 1,-1 10.5,-0.5 27.5,-3.5 1,-1 1,1 1,-1 7.5,-0.75 4.5,-1.25 1,1 1,-1 1.5,-0.25 h 7 l 13.5,-1.75 1,-1 1,1 1,-1 11,-1 1,1 1,-1 h 1 l 1,-1 1,1 1,-1 1,1 1,-1 h 5 l 1,-1 1,1 h 2 l 1,-1 1,1 1,-1 8.5,-0.5 8,-1 22,-0.75 14,-1.5 8,0.38"
     id="path71" />
</g>
</svg>
