<?xml version="1.0" encoding="UTF-8" standalone="no"?>
<svg
   width="407.15985"
   height="258.14569"
   viewBox="-702 0 407.15985 258.14569"
   version="1.2"
   id="svg89"
   xmlns="http://www.w3.org/2000/svg"
   xmlns:svg="http://www.w3.org/2000/svg"><defs
   id="defs89" />
<title
   id="title1">Notebook 4</title>
\n<g
   id="g9"
   transform="rotate(5.4787492,6589.7669,-4209.607)">
  <path
     fill="#000000"
     fill-rule="evenodd"
     d="M 94,880.25 83.5,880 l -1,-1 -0.5,0.5 -0.25,1.375 -4.25,0.125 -5,-5 h -1 L 69,873.5 67.75,869 v -8 l 1.25,-5.5 3,-3 v -1 l 1.5,-1.5 4.5,-2.375 3,-0.875 h 12 l 4,0.875 3.75,1.625 4.625,6.75 0.875,3 0.125,8 -1.375,6.5 -3.5,3.5 -4.5,2.375 -3,0.875 m -2,-2.75 4,-1.125 5.75,-3.625 0.5,-1.75 0.75,-6.5 1,-1 -1,-1 1,-1 -1,-1 -0.625,-2.5 -0.875,-2 -0.5,-1.5 -3.5,-3.5 -18,-1 -7.5,7.5 -0.5,2.5 -1,3 v 4 l 1.125,3 0.375,1.5 2.5,2.5 6.5,0.75 7,2.75 h 4 M 79.5,878 80,877 h -1.5 l -0.5,1 h 1.5 m 2,1 0.5,-1 h -1.5 l -0.5,1 h 1.5"
     id="path9" />
</g>
<g
   id="g10"
   transform="rotate(5.4787492,6589.7669,-4209.607)">
  <path
     fill="#000000"
     fill-rule="evenodd"
     d="M 45.5,883 37,887.375 28,889.5 H 23 L 15.5,888 13,885.5 12.75,884.25 11.5,884 9,881.5 6.25,869 l 0.25,-3 2,-5 5.5,-7.5 3.5,-3.5 4.5,-1.25 h 11 l 3,0.75 3.5,0.5 4.5,4.5 1,2 3.5,5.5 0.875,2 0.875,3 0.75,9.5 -2,2 v 1 l -3.5,3.5 m 1.5,-6.5 0.25,-1.5 0.25,-5 -1.125,-4 -0.875,-2 -3,-5 -0.5,-1.5 -4.5,-4.5 -7.5,-1.375 -7,0.125 -3.5,1.25 -2.5,2.5 -6.125,8.5 -0.125,11 1.25,5.5 0.5,0.5 1,-1 h 2 l 2.5,2.5 v 1 l 1.5,1.5 1.5,0.25 9,0.125 4,-0.875 7.5,-3 5.5,-5"
     id="path10" />
</g>
<g
   id="g11"
   transform="rotate(5.4787492,6589.7669,-4209.607)">
  <path
     fill="#000000"
     fill-rule="evenodd"
     d="m -41,902.375 -9,-0.125 -4.5,-1.25 -1.5,-1.5 -0.5,-1.5 -3.5,-5.5 -1,-2 -2,-2 -0.5,-2.5 0.125,-4 0.75,-2 0.625,-2.5 4,-4 v -1 l 2.5,-2.5 1.5,-0.375 3,-1.125 3,-0.875 5.5,-0.625 1,-1 1,1 4.5,0.75 3.5,1.25 3.5,3.5 v 1 l 1.5,1.5 1.25,0.25 2.75,6.75 0.5,3.5 1,1 -1,1 -0.625,3.5 -0.875,2 -0.5,1.5 -4.5,4.5 -1.5,0.375 -6,2.125 -4,0.875 m -2,-2.875 4,-1.125 5,-1.875 2.5,-0.5 3.5,-3.5 1.25,-3.5 0.125,-5 -1,-3 -4.375,-6.5 -1.5,-1.5 -4.5,-2.25 -5.5,-0.75 -1,1 -1,-1 -1,1 -2.5,0.5 -3,1.125 -1.5,0.375 -1.5,1.5 -3.5,5.5 -0.75,2 -0.75,5.5 3,3 1,3 2.5,2.5 h 2 l 1.5,1.5 -1,1 0.5,0.5 7.5,0.5"
     id="path11" />
</g>
<g
   id="g12"
   transform="rotate(5.4787492,6589.7669,-4209.607)">
  <path
     fill="#000000"
     fill-rule="evenodd"
     d="m -109,909.375 -6.5,0.625 -2,-2 -3,-1 -1.5,-1.5 -0.25,-1.375 -4.25,-0.125 -4.5,-4.5 v -2 l -2,-2 -0.375,-11.5 1.625,-4.75 8.75,-4.625 3,-1 6,-1.125 h 6 l 5,1.25 3.75,1.5 4.625,6.75 1.125,4 -0.5,12.5 -6.5,6.5 -4,2 -2,2 -2.5,0.375 m 0,-4 2.5,-0.375 3,-3 5.25,-3.25 0.5,-2.75 -0.25,-13.5 -5.5,-5.5 -13.5,-0.25 -6.5,1.25 -2,2 -3,1 -1.5,1.5 1,14 2,2 0.25,1.25 1.25,0.25 1,1 0.5,-0.5 0.25,-1.25 1.25,-0.25 1.5,1.5 v 1 l 3.5,3.5 8.5,0.375"
     id="path12" />
</g>
<g
   id="g13"
   transform="rotate(5.4787492,6589.7669,-4209.607)">
  <path
     fill="#000000"
     fill-rule="evenodd"
     d="m -169,914.125 -10.5,0.875 -2,-2 -1.25,-0.25 -1.5,-3.5 -5.25,-1.25 -2.5,-2.5 -1.25,-3.5 v -8 l 0.75,-3 2.5,-6.5 4.5,-4.5 15.5,-0.25 4,0.875 8.5,3.375 3.5,3.5 1.25,3.5 v 10 l -0.875,3 -0.875,2 -0.5,1.5 -1.5,1.5 h -1 l -2,2 -2.5,0.625 -5,2 -2,0.5 m 0,-2.875 1.5,-0.25 2,-2 2.5,-0.625 2,-0.875 1.5,-0.5 2.5,-2.5 1.375,-5.5 -0.125,-6 -1.25,-3.5 -2.5,-2.5 -6.5,-2.625 -7,-1.875 h -5 l -5,1.25 -1.5,0.25 -2.5,2.5 -0.5,1.5 -0.875,2 -2.125,6 0.125,4 0.875,2 0.5,1.5 2.5,2.5 2.5,0.375 5,1.375 1.5,0.25 0.5,0.5 -1.5,1.5 h -1 l -0.5,1 11,0.25"
     id="path13" />
</g>
<g
   id="g15"
   transform="rotate(5.4787492,6589.7669,-4209.607)">
  <path
     fill="#000000"
     fill-rule="evenodd"
     d="m 61,843.25 -14.5,0.75 -1,-1 -1,1 -1.5,0.375 H 40 L 35.25,841.75 35,840.5 l -4,-4 -0.375,-2.5 0.125,-7 0.75,-2 5.5,-7.5 4.5,-4.5 15.5,-0.25 5.5,1.25 5.5,5.5 0.375,1.5 1.875,5 v 9 L 68,839.5 65.5,842 61,843.25 m -2,-3 4.5,-1.25 3.5,-3.5 0.5,-2.5 v -4 l -3,-8 -0.5,-1.5 -1.5,-1.5 -3.5,-1.25 -7,-1.25 -7,0.25 -1.5,0.25 -2.5,2.5 v 1 l -7,7 -0.5,2.5 0.125,4 2.375,4.5 1,0.5 v -0.5 l 0.25,-1.25 1.75,0.25 6,2.875 3,0.875 H 59 M 40,841 v -1 h -1 v 1 h 1"
     id="path15" />
</g>
<g
   id="g16"
   transform="rotate(5.4787492,6589.7669,-4209.607)">
  <path
     fill="#000000"
     fill-rule="evenodd"
     d="m -16,858.375 -7,-0.125 -3.5,-1.25 -1,-1 -0.5,0.5 -0.25,2.375 h -4.5 L -33.5,857 l -4,-6 -2,-4 -0.625,-2 v -12 l 3.125,-5.5 1.5,-1.5 4.5,-1.375 5,-0.875 h 15 l 3,0.875 2,0.875 1.5,0.5 3.5,3.5 1.25,5.5 -0.25,13.5 -6.5,6.5 -1.5,0.5 -5,2 -3,0.875 m -2.5,-2.375 1,-1 h 3 l 2,-2 4,-1 5.5,-5.5 0.625,-8.5 -1.375,-5 -0.25,-1.5 -2.5,-2.5 -1.5,-0.5 -2,-0.875 -3,-1 -7,-0.125 -11.5,1.5 -4.5,4.5 -1.375,4.5 v 6 l 1,3 2.375,4.5 1.5,1.5 1,-1 1,1 3.5,0.625 4,1.875 1.5,0.5 1,1 1,-1 1,1 M -31,855 v -1 h -1 v 1 h 1 m 1.5,1 0.5,-1 h -1.5 l -0.5,1 h 1.5"
     id="path16" />
</g>
<g
   id="g17"
   transform="rotate(5.4787492,6589.7669,-4209.607)">
  <path
     fill="#000000"
     fill-rule="evenodd"
     d="m -66.5,801 h -4 l -2,-2 h -1 l -1.5,-1.5 -0.375,-1.5 -0.625,-3.5 2,-2 v -1 l 1.5,-1.5 2.5,0.375 6.75,1.875 0.5,1.75 0.75,5.5 -1.5,1.5 h -1 l -2,2"
     id="path17" />
</g>
<g
   id="g18"
   transform="rotate(5.4787492,6589.7669,-4209.607)">
  <path
     fill="#000000"
     fill-rule="evenodd"
     d="m -77,866.25 h -9 l -3.5,-1.25 -2,-2 -1,1 -4,-1 -1.5,-1.5 -3.5,-5.5 -2.875,-6 -1.25,-4 v -2 l 0.625,-3.5 2,-2 v -1 l 6.5,-6.5 1.5,-0.5 6,-2.875 4,-1.125 3,-0.125 6,1.375 8.5,3.25 4.5,4.5 0.375,1.5 1.125,3 0.875,4 v 7 l -1,3 -0.875,2 -0.5,1.5 -4.5,4.5 -6.5,3.375 -3,0.875 m -3,-2.75 8,-3 1.5,-0.5 4.5,-4.5 1.25,-3.5 v -10 l -1.25,-4.5 -3.5,-3.5 -1.5,-0.5 -4,-1.875 -3,-0.875 h -9 l -2,0.75 -4,2 -1.5,0.5 -4.5,4.5 v 1 l -3,3 0.625,5.5 1,3 1.875,4 0.5,1.5 1.5,1.5 0.5,-0.5 0.25,-1.25 3.75,2.25 4,3 4,1.875 4,0.125 M -95,860 v -1 h -1 v 1 h 1"
     id="path18" />
</g>
<g
   id="g19"
   transform="rotate(5.4787492,6589.7669,-4209.607)">
  <path
     fill="#000000"
     fill-rule="evenodd"
     d="m -145,870.5 -2,0.75 h -9 l -3,-0.75 -6.5,-2.5 -3.5,-3.5 -1.5,-9.5 0.25,-8 1.25,-4.5 4.5,-4.5 h 1 l 2,-2 12.5,-0.375 7.5,1.375 4.5,4.5 v 1 l 2,2 0.375,10.5 -1,4 -1.875,4 -0.5,1.5 -5.5,5.5 -1.5,0.5 m -0.5,-3.5 4.5,-4.5 v -1 l 2,-2 0.375,-2.5 1.25,-5 -0.125,-3 -1.125,-3 -0.375,-1.5 -4.5,-4.5 -8.5,-1.5 -6,0.25 -3.5,1.25 -5.5,5.5 -0.25,10.5 0.75,2 4.5,6.5 -1,1 0.5,0.5 1.5,0.375 3,1.125 2.5,0.5 1,1 1,-1 1,1 3.5,-0.625 2,-0.875 1.5,-0.5"
     id="path19" />
</g>
<g
   id="g20"
   transform="rotate(5.4787492,6589.7669,-4209.607)">
  <path
     fill="#000000"
     fill-rule="evenodd"
     d="m -127,826.25 h -8 l -8,-5.75 -1.75,-0.75 -4.625,-8.75 -1,-3 v -6 l 1,-3 3.625,-5.75 7.75,-5.75 5,-2 h 4 l 6,1.125 4.5,1.375 7.5,7.5 0.25,15.5 -1.25,5.5 -2,2 v 1 l -3.5,3.5 -1.5,0.5 -5,2 -3,0.75 m 0,-3.875 5.5,-1.375 2,-2 h 1 l 1.5,-1.5 v -1 l 2,-2 1.5,-7.5 v -5 l -1.5,-5.5 -5.5,-5.5 -4.5,-1.25 h -9 l -3.5,1.25 -8.5,8.5 -0.375,1.5 -0.625,3.5 -1,1 1,1 0.625,3.5 0.875,2 2.75,4.75 2.5,0.5 0.25,1.25 2.5,2.5 3.5,1.25 7,0.125"
     id="path20" />
</g>
<g
   id="g21"
   transform="rotate(5.4787492,6589.7669,-4209.607)">
  <path
     fill="#000000"
     fill-rule="evenodd"
     d="M 10,803.375 2,803.5 -4,802.25 -7.5,801 -9,799.5 l -2.5,-4.5 -0.75,-2 -0.75,-6.5 -1,-1 1,-1 0.75,-4.5 0.75,-2 2,-4 0.5,-1.5 2.5,-2.5 h 1 l 3,-3 9.5,-1.5 7,0.25 3.5,1.25 4.5,4.5 0.375,1.5 3,7 0.875,3 -0.25,12.5 -5.5,5.5 -5.5,1.5 -5,0.875 M 9,800.5 19.5,798 22,795.5 23.25,792 v -8 L 19.5,775 19,773.5 15.5,770 14,769.75 4,769.625 l -4,1 -2,0.875 -1.5,0.5 -2.5,2.5 -2.375,4.5 -1,4 -0.625,9.5 2.5,2.5 5.5,3.5 2,0.875 3,1 6,0.125"
     id="path21" />
</g>
<g
   id="g22"
   transform="rotate(5.4787492,6589.7669,-4209.607)">
  <path
     fill="#000000"
     fill-rule="evenodd"
     d="m -17.5,755 -1.5,3.5 -1.5,1.5 -4.5,2.375 -3,1 -6,0.125 -4,-1.125 -2,-0.75 -2.5,-0.625 -2,2 h -1 l -5.5,-5.5 -1.25,-3.5 -0.75,-6.5 -1,-1 1,-1 -1,-1 1.625,-5.5 2.375,-4.5 1.5,-1.5 4.5,-2.25 8,-1.5 h 2 l 7,1.5 5,1.875 1.5,0.375 1.5,1.5 v 1 l 2,2 0.125,15.5 -0.625,2 m -9.5,4.25 1.5,-0.25 4.5,-4.5 1,-4 1,-1 -1,-1 1,-1 -0.625,-5.5 -1.375,-4.5 -1.5,-1.5 -1.5,-0.375 -3,-1.125 -3,-0.75 -14.5,0.25 -3.5,3.5 -1.125,3.5 -0.125,11 1.5,4.875 7.75,0.875 6,1.625 7,-0.125"
     id="path22" />
</g>
<g
   id="g23"
   transform="rotate(5.4787492,6589.7669,-4209.607)">
  <path
     fill="#000000"
     fill-rule="evenodd"
     d="m -100,774.125 -12,0.25 -6.5,-1.375 -1.5,-1.5 -1,-2 -3.5,-5.5 -0.875,-2 -1.125,-4 v -3 l 2,-5 4.75,-6.75 7.75,-2.625 5,-0.125 6,1.125 4.5,1.375 5.5,5.5 2.75,8.5 v 2 l -1.5,5 -1.25,3.5 -5.5,5.5 -3.5,1.125 m -2,-2.75 2.5,-0.375 2,-2 1.25,-0.25 0.25,-1.25 3,-3 v -13 l -2,-2 -0.25,-1.25 -4.75,-2.625 -3,-0.875 -12.5,0.25 -5.5,5.5 v 1 l -2,2 0.75,7.5 0.75,2 3.5,5.5 1.5,1.5 7.5,1.5 7,-0.125"
     id="path23" />
</g>
<g
   id="g24"
   transform="rotate(5.4787492,6589.7669,-4209.607)">
  <path
     fill="#000000"
     fill-rule="evenodd"
     d="m -75,735.25 -14.5,0.75 -4.5,-4.5 0.25,-2.25 1.25,-0.25 0.5,-0.5 -3,-3 -2.125,-4.5 -0.125,-12 0.875,-3 1.875,-4 2.5,-4.5 4.5,-4.5 1.5,-0.5 5,-2 4,-1 h 4 l 4,1 3,1.125 1.5,0.375 4.5,4.5 0.5,1.5 3.5,5.5 1.125,2.5 0.125,13 -1.25,6.5 -2,2 v 1 l -3.5,3.5 -1.5,0.375 -3,1.125 -4,1 -5,0.75 m -1,-2.75 8,-2 3.5,-0.5 4.5,-4.5 1.375,-4.5 1.625,-9.5 -1,-1 1,-1 -1,-1 v -3 l -3,-3 -1,-3 -4.5,-4.5 -4.5,-1.25 h -8 l -3,0.875 -2,0.875 -1.5,0.5 -4.5,4.5 -1,3 -2,2 -1.25,5.5 v 8 l 0.75,2 4.75,6.75 3.75,1.625 3.5,0.625 1.5,1.5 -1,1 0.5,0.5 4.5,-0.5 M -90,731 v -1 h -1 v 1 h 1 m 2,1 v -1 h -1 v 1 h 1 m 2.5,1 0.5,-1 h -2.5 l -0.5,1 h 2.5"
     id="path24" />
</g>
<g
   id="g25"
   transform="rotate(5.4787492,6589.7669,-4209.607)">
  <path
     fill="#000000"
     fill-rule="evenodd"
     d="m -13.5,912 -1,-1 -1,1 -46.5,3.5 -4,1 -42.5,3.5 -1,1 -1,-1 -94,9 -1,-1 -1,1 h -8 l -1,1 -1,-1 h -1 l -1,1 -1,-1 -15.5,1.75 -4,1.625 -2.75,0.375 -0.75,-2.75 -0.25,-2.75 3.5,-1.5 0.5,-3.5 1.25,-0.25 5.5,-5.5 5,-9 16,-25 6,-8 12,-19 1,-2 2,-2 0.625,-2.5 2.75,-5 0.625,-2.5 2,-2 0.5,-1.5 13,-22 2.125,-5 0.375,-1.5 2,-2 v -2 l 2,-2 1,-4 2,-2 0.625,-2.5 2.75,-5 0.625,-2.5 2,-2 0.25,-2.25 1.5,-0.5 1.25,-2.25 6.5,-10.5 3,-7 4,-9 18,-31 0.5,-1.5 2,-2 v -2 l 3,-3 0.625,-2.5 13.875,-22 1,-2 0.5,-1.5 2,-2 v -2 l 2,-2 0.25,-1.25 1.5,-0.5 1.5,-4.5 1.25,-0.25 0.5,-0.5 -1,-1 4,-4 0.5,-1.5 1,-2 0.5,-1.5 3.5,-3.5 h 1 l 1,-1 1,1 1.5,0.5 2,1 1.75,0.75 0.5,1.5 1.5,0.5 0.5,1.5 1.25,0.25 5.5,5.5 24,26 8.5,8.5 7,5 3.5,3.5 0.25,1.25 1.5,0.5 0.5,1.5 1.5,0.5 0.25,1.25 1.5,1.5 h 1 L -3,732.5 v 1 l 2.5,2.5 3,2 12,10 2.5,2.5 0.25,1.25 1.5,0.5 0.5,1.5 14.5,10.5 0.25,1.25 0.5,0.5 1,-1 0.5,0.5 4.25,6.25 1.25,0.25 1.5,1.5 0.25,1.25 1.5,0.5 0.5,1.5 1.25,0.25 1.5,1.5 0.25,1.25 3.25,1.25 2.5,2.5 0.25,1.25 1.5,0.5 0.5,1.5 20.25,18.25 1.5,1.5 0.25,1.25 11.75,8.75 1.5,0.5 2.5,2.5 v 1 l 1.5,1.5 7.25,5.25 0.5,1.5 1.5,0.5 0.5,1.5 1.25,0.25 1.5,1.5 0.25,1.25 1.5,0.5 0.5,1.5 1.5,0.5 0.5,1.5 11.25,9.25 3.5,3.5 v 1 l 2.5,2.5 h 1 l 6.5,6.5 0.25,1.25 5.5,3.5 0.5,2.5 4.25,2.25 3.5,3.5 0.375,1.5 0.625,3.5 1.5,1.5 1.5,0.5 2,1 1.5,0.5 3.5,3.5 0.5,2.5 -0.125,3 -0.375,1.5 -1.5,1.5 -30.5,2.875 -6.5,-0.875 -1,1 -1,-1 -1,1 -10.5,-0.625 -15.5,1.625 -1,1 -1,-1 -1,1 h -2 l -1,1 -1,-1 -69,8 -1,1 -1,-1 -1,1 h -6 l -1,1 -1,-1 -1,1 -19,2 -1,1 m -68.5,0.5 8.5,-1.5 1,1 1,-1 1,1 2,-2 h 1 l 1,1 1,-1 h 2 l 1,-1 1,1 1.5,-0.5 2,-1 1.5,-0.5 1,1 1,-1 9,-1 1,1 1,-1 3.5,-0.625 1.5,-0.375 1,1 1,-1 12.5,-0.5 41,-5.125 5.5,-1.375 1,1 1,-1 h 1 l 1,-1 1,1 1,-1 10,-1 1,1 1,-1 7,-1 1,1 1,-1 24,-3 1,1 1,-1 h 1 l 1,1 1,-1 h 5 l 1,-1 1,1 1,-1 58,-3 1,-1 1,1 1,-1 h 4 l 0.5,-0.5 -1.5,-1.5 h -1 l -2,-2 h -2 l -1.5,-1.5 0.5,-2.5 0.25,-2.75 L 131.5,867 130,865.5 v -1 l -1.5,-1.5 -14,-12 -2.5,-2.5 v -1 L 96.5,832 h -1 L 93,829.5 92.75,828.25 91.5,828 90,826.5 l -0.25,-1.25 -15.5,-11.5 -0.5,-1.5 L 72.5,812 51,790.5 50.75,789.25 43.5,784 42,782.5 41.75,781.25 40.5,781 37,777.5 v -1 l -9.5,-9.5 -2.5,-1.5 -9.75,-7.75 -0.5,-1.5 -1.5,-0.5 -0.5,-1.5 L -0.5,743 l -3,-2 -5.5,-5.5 v -1 L -12.5,731 -34,711.5 -38.5,708 -42,704.5 -64.25,680.25 -65.5,680 l -1.5,-1.5 -4,-6 -1.5,-1.5 h -1 l -2.5,-2.5 v -1 l -0.5,-0.5 -2.5,2.5 -9,14 -7,10 -2.5,4.5 -0.5,1.5 -3,3 v 2 l -3,3 -0.5,1.5 -27.5,47.5 -10.5,22.5 -6,8 -5.875,12 -0.625,2.5 -2,2 -0.5,1.5 -6,12 -0.5,1.5 -2,2 v 2 l -3,3 -0.5,1.5 -27.5,47.5 -9.5,13.5 -4.5,7.5 -11,16 -5,9 -3,3 0.5,0.5 h 4 l 1,-1 1,1 1,-1 h 5 l 1,1 1,-1 h 8 l 1,-1 1,1 1,-1 36,-2 1,-1 1,1 1,-1 h 7 l 1,1 1,-1 1,1 1,-1 49,-4 1,-1 1,1 1,-1 1,1 3,-1 1,1 1,-1 14.5,-1.5"
     id="path25" />
</g>
</svg>
